<svg width="83" height="40" viewBox="0 0 83 40" fill="none" xmlns="http://www.w3.org/2000/svg">
<path d="M63.2 0H19.2C12.5726 0 7.2 5.37258 7.2 12V28C7.2 34.6274 12.5726 40 19.2 40H63.2C69.8274 40 75.2 34.6274 75.2 28V12C75.2 5.37258 69.8274 0 63.2 0Z" fill="#FDC751"/>
<path d="M11.9 25.3502C11.9 25.7668 11.725 26.1585 11.375 26.5252C11.0417 26.8918 10.6 27.2252 10.05 27.5252C9.51668 27.8252 8.91668 28.0918 8.25 28.3252C7.58332 28.5418 6.925 28.7252 6.275 28.8752C5.625 29.0418 5.00832 29.1668 4.425 29.2502C3.85832 29.3335 3.40832 29.3752 3.075 29.3752C2.75833 29.3752 2.41667 29.3418 2.05 29.2752C1.7 29.2252 1.40833 29.1002 1.175 28.9002C1.04167 28.8002 0.925 28.5752 0.825 28.2252C0.725 27.8752 0.625 27.4585 0.525 26.9752C0.441668 26.4918 0.366668 25.9752 0.3 25.4252C0.233332 24.8585 0.175 24.3085 0.125 23.7752C0.091668 23.2418 0.058332 22.7502 0.025 22.3002C0.008332 21.8502 0 21.5002 0 21.2502C0 20.8335 0.008332 20.3335 0.025 19.7502C0.058332 19.1502 0.1 18.5168 0.15 17.8502C0.2 17.1668 0.266668 16.4752 0.35 15.7752C0.433332 15.0752 0.525 14.4168 0.625 13.8002C0.741668 13.1668 0.875 12.6002 1.025 12.1002C1.19167 11.6002 1.36667 11.2085 1.55 10.9252C1.86667 10.4752 2.26667 10.2502 2.75 10.2502C3.08333 10.2502 3.36668 10.3668 3.6 10.6002C3.83332 10.8168 4.01668 11.1085 4.15 11.4752C4.3 11.8252 4.40832 12.2252 4.475 12.6752C4.55832 13.1085 4.61668 13.5418 4.65 13.9752C4.68332 14.4085 4.7 14.8085 4.7 15.1752C4.7 15.5418 4.7 15.8335 4.7 16.0502C4.7 17.3502 4.66668 18.6418 4.6 19.9252C4.55 21.1918 4.525 22.4752 4.525 23.7752V24.7502C5.275 24.5168 6.09168 24.3002 6.975 24.1002C7.85832 23.8835 8.7 23.7752 9.5 23.7752C9.78332 23.7752 10.0667 23.7918 10.35 23.8252C10.65 23.8585 10.9083 23.9335 11.125 24.0502C11.3583 24.1502 11.5417 24.3085 11.675 24.5252C11.825 24.7252 11.9 25.0002 11.9 25.3502ZM16.65 11.3502C16.65 11.5835 16.5833 11.7918 16.45 11.9752C16.3333 12.1585 16.175 12.3252 15.975 12.4752C15.775 12.6085 15.5583 12.7168 15.325 12.8002C15.0917 12.8668 14.875 12.9002 14.675 12.9002C14.3417 12.9002 14.05 12.8168 13.8 12.6502C13.55 12.4835 13.425 12.2252 13.425 11.8752C13.425 11.6252 13.4833 11.4085 13.6 11.2252C13.7333 11.0252 13.8917 10.8668 14.075 10.7502C14.2583 10.6168 14.4667 10.5168 14.7 10.4502C14.9333 10.3835 15.1583 10.3502 15.375 10.3502C15.6917 10.3502 15.9833 10.4252 16.25 10.5752C16.5167 10.7252 16.65 10.9835 16.65 11.3502ZM16.85 19.8502C16.85 20.0835 16.85 20.3335 16.85 20.6002C16.85 20.8502 16.8417 21.0918 16.825 21.3252C16.8083 21.6085 16.8 21.9918 16.8 22.4752C16.8 22.9418 16.7833 23.4502 16.75 24.0002C16.7167 24.5502 16.6583 25.1085 16.575 25.6752C16.5083 26.2418 16.3917 26.7585 16.225 27.2252C16.0583 27.6918 15.8333 28.0752 15.55 28.3752C15.2833 28.6585 14.9417 28.8085 14.525 28.8252C14.2083 28.8418 13.9417 28.7168 13.725 28.4502C13.5083 28.1835 13.325 27.8418 13.175 27.4252C13.0417 26.9918 12.9417 26.5168 12.875 26.0002C12.8083 25.4668 12.7583 24.9585 12.725 24.4752C12.6917 23.9752 12.675 23.5168 12.675 23.1002C12.675 22.6835 12.675 22.3752 12.675 22.1752C12.675 21.9085 12.675 21.5335 12.675 21.0502C12.675 20.5502 12.6917 20.0168 12.725 19.4502C12.7583 18.8835 12.8167 18.3085 12.9 17.7252C13 17.1418 13.1333 16.6085 13.3 16.1252C13.4833 15.6418 13.7167 15.2502 14 14.9502C14.2833 14.6502 14.6417 14.5002 15.075 14.5002C15.525 14.5002 15.8667 14.7252 16.1 15.1752C16.3333 15.6252 16.5083 16.1502 16.625 16.7502C16.7417 17.3502 16.8083 17.9502 16.825 18.5502C16.8417 19.1335 16.85 19.5668 16.85 19.8502ZM29.1 13.8502C29.1 14.1668 29.0667 14.4752 29 14.7752C28.95 15.0585 28.85 15.3085 28.7 15.5252C28.55 15.7418 28.35 15.9168 28.1 16.0502C27.85 16.1668 27.5417 16.2252 27.175 16.2252C26.7583 16.2252 26.45 16.1418 26.25 15.9752C26.05 15.8085 25.9083 15.6085 25.825 15.3752C25.7583 15.1252 25.725 14.8585 25.725 14.5752C25.725 14.2918 25.7083 14.0335 25.675 13.8002C25.6583 13.5502 25.6 13.3418 25.5 13.1752C25.4 13.0085 25.2167 12.9252 24.95 12.9252C24.7 12.9252 24.4917 13.1168 24.325 13.5002C24.175 13.8835 24.05 14.3252 23.95 14.8252C23.85 15.3252 23.7833 15.8168 23.75 16.3002C23.7167 16.7668 23.7 17.0835 23.7 17.2502C23.9167 17.2168 24.125 17.1918 24.325 17.1752C24.525 17.1418 24.7417 17.1252 24.975 17.1252C25.2083 17.1252 25.45 17.1502 25.7 17.2002C25.95 17.2502 26.1833 17.3335 26.4 17.4502C26.6167 17.5502 26.7917 17.7002 26.925 17.9002C27.0583 18.0835 27.125 18.3168 27.125 18.6002C27.125 18.9002 26.9917 19.1668 26.725 19.4002C26.475 19.6335 26.1667 19.8335 25.8 20.0002C25.45 20.1502 25.0917 20.2752 24.725 20.3752C24.3583 20.4752 24.0667 20.5418 23.85 20.5752C23.9 21.7252 23.925 22.8835 23.925 24.0502C23.925 25.1502 23.9 26.2335 23.85 27.3002C23.8167 27.8168 23.6333 28.2418 23.3 28.5752C22.9833 28.9085 22.5667 29.0752 22.05 29.0752C21.7667 29.0752 21.525 29.0168 21.325 28.9002C21.125 28.8002 20.9583 28.6585 20.825 28.4752C20.6917 28.2918 20.5833 28.0835 20.5 27.8502C20.4333 27.6168 20.3917 27.3752 20.375 27.1252C20.2917 26.1252 20.225 25.1252 20.175 24.1252C20.125 23.1085 20.1083 22.0918 20.125 21.0752C20.0083 21.0918 19.8917 21.1002 19.775 21.1002C19.675 21.1002 19.5667 21.1002 19.45 21.1002C19.25 21.1002 19.0083 21.0752 18.725 21.0252C18.4417 20.9752 18.1667 20.8918 17.9 20.7752C17.65 20.6418 17.4333 20.4835 17.25 20.3002C17.0667 20.1168 16.975 19.8835 16.975 19.6002C16.975 19.2335 17.1 18.9252 17.35 18.6752C17.5833 18.4252 17.8667 18.2252 18.2 18.0752C18.55 17.9085 18.9083 17.7918 19.275 17.7252C19.6583 17.6585 19.9917 17.6085 20.275 17.5752V17.1752C20.275 16.3585 20.35 15.4835 20.5 14.5502C20.65 13.6168 20.9167 12.7502 21.3 11.9502C21.6833 11.1502 22.2083 10.4918 22.875 9.97515C23.5417 9.44184 24.3917 9.17515 25.425 9.17515C26.075 9.17515 26.6333 9.31684 27.1 9.60015C27.5667 9.86683 27.95 10.2252 28.25 10.6752C28.55 11.1085 28.7667 11.6085 28.9 12.1752C29.0333 12.7252 29.1 13.2835 29.1 13.8502ZM38.65 24.3502C38.65 24.9168 38.4667 25.4752 38.1 26.0252C37.75 26.5585 37.3 27.0418 36.75 27.4752C36.2167 27.8918 35.6417 28.2335 35.025 28.5002C34.4083 28.7502 33.8417 28.8752 33.325 28.8752C32.4417 28.8752 31.65 28.6585 30.95 28.2252C30.2667 27.7752 29.6917 27.2085 29.225 26.5252C28.7583 25.8418 28.4 25.0918 28.15 24.2752C27.9167 23.4418 27.8 22.6335 27.8 21.8502C27.8 21.0168 27.9167 20.1252 28.15 19.1752C28.3833 18.2252 28.7333 17.3502 29.2 16.5502C29.6833 15.7502 30.2833 15.0835 31 14.5502C31.7333 14.0168 32.6 13.7502 33.6 13.7502C34.1667 13.7502 34.7083 13.8502 35.225 14.0502C35.7417 14.2335 36.1917 14.5002 36.575 14.8502C36.9583 15.2002 37.2667 15.6168 37.5 16.1002C37.7333 16.5835 37.85 17.1252 37.85 17.7252C37.85 18.5085 37.6833 19.2418 37.35 19.9252C37.0167 20.6085 36.575 21.2002 36.025 21.7002C35.475 22.2002 34.8417 22.6085 34.125 22.9252C33.4083 23.2252 32.675 23.3918 31.925 23.4252C31.9917 23.9085 32.1833 24.2585 32.5 24.4752C32.8333 24.6918 33.225 24.8002 33.675 24.8002C34.0083 24.8002 34.3333 24.7168 34.65 24.5502C34.9667 24.3835 35.275 24.2002 35.575 24.0002C35.875 23.7835 36.1667 23.5918 36.45 23.4252C36.75 23.2585 37.05 23.1752 37.35 23.1752C37.6833 23.1752 37.9833 23.2835 38.25 23.5002C38.5167 23.7168 38.65 24.0002 38.65 24.3502ZM34.6 18.2252C34.6 18.0085 34.5417 17.7835 34.425 17.5502C34.3083 17.3168 34.125 17.2002 33.875 17.2002C33.5083 17.2002 33.2 17.3002 32.95 17.5002C32.7 17.6835 32.4917 17.9252 32.325 18.2252C32.1583 18.5085 32.025 18.8168 31.925 19.1502C31.8417 19.4835 31.7917 19.7918 31.775 20.0752C32.0083 20.0252 32.2833 19.9585 32.6 19.8752C32.9333 19.7918 33.2417 19.6835 33.525 19.5502C33.825 19.4002 34.075 19.2168 34.275 19.0002C34.4917 18.7835 34.6 18.5252 34.6 18.2252ZM45.475 29.7002C44.2918 29.7002 43.3666 29.5418 42.7002 29.2252C42.0498 28.9252 41.5582 28.4918 41.225 27.9252C40.9082 27.3585 40.7166 26.6752 40.6498 25.8752C40.5834 25.0752 40.5498 24.1835 40.5498 23.2002C40.5498 22.4168 40.575 21.6335 40.625 20.8502C40.675 20.0502 40.7498 19.2002 40.8498 18.3002C40.6166 18.3002 40.4334 18.3085 40.3002 18.3252C40.1666 18.3252 40.0582 18.3252 39.975 18.3252C39.4418 18.3252 38.9833 18.2085 38.6 17.9752C38.2 17.7418 38 17.3835 38 16.9002C38 16.6002 38.1167 16.3335 38.35 16.1002C38.5667 15.8668 38.85 15.6668 39.2 15.5002C39.5498 15.3335 39.925 15.2002 40.325 15.1002C40.7418 15.0002 41.1334 14.9335 41.5002 14.9002C41.5002 14.4335 41.5334 13.9168 41.6002 13.3502C41.6666 12.7835 41.7834 12.2585 41.9498 11.7752C42.1334 11.2752 42.375 10.8585 42.675 10.5252C42.975 10.1918 43.3582 10.0252 43.825 10.0252C44.0918 10.0252 44.325 10.1085 44.525 10.2752C44.7418 10.4252 44.9166 10.6252 45.0498 10.8752C45.1834 11.1085 45.2834 11.3752 45.3498 11.6752C45.4166 11.9752 45.4498 12.2668 45.4498 12.5502C45.4498 12.8835 45.425 13.2252 45.375 13.5752C45.325 13.9252 45.2334 14.3585 45.1002 14.8752C45.3834 14.8418 45.575 14.8252 45.675 14.8252C45.775 14.8085 45.8666 14.8002 45.9498 14.8002C46.2334 14.8002 46.525 14.8252 46.825 14.8752C47.1418 14.9252 47.425 15.0085 47.675 15.1252C47.9418 15.2418 48.1582 15.4002 48.325 15.6002C48.4918 15.7835 48.575 16.0085 48.575 16.2752C48.575 16.5752 48.4498 16.8418 48.2002 17.0752C47.9666 17.3085 47.6666 17.5085 47.3002 17.6752C46.9334 17.8418 46.5418 17.9752 46.125 18.0752C45.7082 18.1585 45.3166 18.2168 44.9498 18.2502C44.8498 18.9335 44.775 19.5668 44.725 20.1502C44.6918 20.7168 44.6498 21.2918 44.6002 21.8752C44.5666 22.1585 44.5334 22.4502 44.5002 22.7502C44.4834 23.0335 44.475 23.3252 44.475 23.6252C44.475 23.8418 44.4834 24.1002 44.5002 24.4002C44.5166 24.6835 44.575 24.9585 44.675 25.2252C44.775 25.4918 44.9334 25.7252 45.1498 25.9252C45.3666 26.1085 45.6666 26.2002 46.0498 26.2002C46.2834 26.2002 46.525 26.1835 46.775 26.1502C47.025 26.1002 47.275 26.0752 47.525 26.0752C47.9582 26.0752 48.2666 26.2252 48.4498 26.5252C48.6498 26.8252 48.7498 27.2085 48.7498 27.6752C48.7498 28.0252 48.6418 28.3335 48.425 28.6002C48.225 28.8502 47.9666 29.0502 47.6498 29.2002C47.3334 29.3668 46.975 29.4918 46.575 29.5752C46.1918 29.6585 45.825 29.7002 45.475 29.7002ZM54.0002 29.5252C53.1498 29.5252 52.4082 29.3002 51.775 28.8502C51.1418 28.4002 50.6082 27.8252 50.175 27.1252C49.7418 26.4252 49.4166 25.6502 49.2002 24.8002C48.9834 23.9335 48.875 23.0835 48.875 22.2502C48.875 21.3668 48.9834 20.4585 49.2002 19.5252C49.4166 18.5752 49.7498 17.7168 50.2002 16.9502C50.6498 16.1668 51.225 15.5335 51.925 15.0502C52.625 14.5502 53.4582 14.3002 54.425 14.3002C55.3582 14.3002 56.1498 14.5585 56.8002 15.0752C57.4666 15.5752 58.0002 16.2085 58.4002 16.9752C58.8002 17.7252 59.0834 18.5502 59.2498 19.4502C59.4166 20.3502 59.475 21.2002 59.425 22.0002C59.375 22.8835 59.2334 23.7752 59.0002 24.6752C58.7834 25.5752 58.4582 26.3835 58.025 27.1002C57.5918 27.8168 57.0418 28.4002 56.375 28.8502C55.7082 29.3002 54.9166 29.5252 54.0002 29.5252ZM54.2498 18.2252C54.0002 18.2252 53.775 18.3585 53.575 18.6252C53.3918 18.8918 53.2334 19.2168 53.1002 19.6002C52.9834 19.9835 52.8918 20.3918 52.825 20.8252C52.7582 21.2418 52.725 21.6085 52.725 21.9252C52.725 22.3252 52.7582 22.7585 52.825 23.2252C52.9082 23.6918 53.0166 24.1252 53.1498 24.5252C53.2834 24.9085 53.4418 25.2335 53.625 25.5002C53.825 25.7502 54.0498 25.8752 54.3002 25.8752C54.5666 25.8752 54.7918 25.7502 54.975 25.5002C55.175 25.2502 55.3334 24.9335 55.4498 24.5502C55.5666 24.1668 55.6498 23.7502 55.7002 23.3002C55.7498 22.8335 55.775 22.4002 55.775 22.0002C55.775 21.6335 55.7418 21.2335 55.675 20.8002C55.6082 20.3502 55.5082 19.9335 55.375 19.5502C55.2582 19.1668 55.1002 18.8502 54.9002 18.6002C54.7166 18.3502 54.5002 18.2252 54.2498 18.2252ZM65.4498 29.5252C64.6002 29.5252 63.8582 29.3002 63.225 28.8502C62.5918 28.4002 62.0582 27.8252 61.625 27.1252C61.1918 26.4252 60.8666 25.6502 60.6498 24.8002C60.4334 23.9335 60.325 23.0835 60.325 22.2502C60.325 21.3668 60.4334 20.4585 60.6498 19.5252C60.8666 18.5752 61.2002 17.7168 61.6498 16.9502C62.1002 16.1668 62.675 15.5335 63.375 15.0502C64.075 14.5502 64.9082 14.3002 65.875 14.3002C66.8082 14.3002 67.6002 14.5585 68.2498 15.0752C68.9166 15.5752 69.4498 16.2085 69.8498 16.9752C70.2498 17.7252 70.5334 18.5502 70.7002 19.4502C70.8666 20.3502 70.925 21.2002 70.875 22.0002C70.825 22.8835 70.6834 23.7752 70.4498 24.6752C70.2334 25.5752 69.9082 26.3835 69.475 27.1002C69.0418 27.8168 68.4918 28.4002 67.825 28.8502C67.1582 29.3002 66.3666 29.5252 65.4498 29.5252ZM65.7002 18.2252C65.4498 18.2252 65.225 18.3585 65.025 18.6252C64.8418 18.8918 64.6834 19.2168 64.5498 19.6002C64.4334 19.9835 64.3418 20.3918 64.275 20.8252C64.2082 21.2418 64.175 21.6085 64.175 21.9252C64.175 22.3252 64.2082 22.7585 64.275 23.2252C64.3582 23.6918 64.4666 24.1252 64.6002 24.5252C64.7334 24.9085 64.8918 25.2335 65.075 25.5002C65.275 25.7502 65.5002 25.8752 65.7498 25.8752C66.0166 25.8752 66.2418 25.7502 66.425 25.5002C66.625 25.2502 66.7834 24.9335 66.9002 24.5502C67.0166 24.1668 67.1002 23.7502 67.1498 23.3002C67.2002 22.8335 67.225 22.4002 67.225 22.0002C67.225 21.6335 67.1918 21.2335 67.125 20.8002C67.0582 20.3502 66.9582 19.9335 66.825 19.5502C66.7082 19.1668 66.5498 18.8502 66.3498 18.6002C66.1666 18.3502 65.9498 18.2252 65.7002 18.2252ZM79.2498 29.5002C78.9666 29.5002 78.7418 29.3668 78.575 29.1002C78.4082 28.8502 78.2834 28.5585 78.2002 28.2252C78.1166 27.8918 78.0582 27.5585 78.025 27.2252C78.0082 26.8752 78.0002 26.6085 78.0002 26.4252C78.0002 25.9252 78.025 25.4252 78.075 24.9252C78.1418 24.4252 78.2082 23.9252 78.275 23.4252C78.3582 22.9252 78.425 22.4252 78.475 21.9252C78.5418 21.4252 78.575 20.9252 78.575 20.4252C78.575 20.2252 78.5666 20.0085 78.5498 19.7752C78.5334 19.5418 78.4918 19.3252 78.425 19.1252C78.375 18.9085 78.2834 18.7335 78.1498 18.6002C78.0166 18.4668 77.8418 18.4002 77.625 18.4002C77.475 18.4002 77.3082 18.5252 77.125 18.7752C76.9418 19.0085 76.7666 19.2835 76.6002 19.6002C76.4498 19.9002 76.3166 20.2085 76.2002 20.5252C76.1002 20.8252 76.0498 21.0502 76.0498 21.2002C76.0498 21.5668 76.0498 21.9418 76.0498 22.3252C76.0666 22.6918 76.075 23.0668 76.075 23.4502V24.9002C76.0582 25.2002 76.0334 25.5085 76.0002 25.8252C75.9666 26.1418 75.9166 26.4502 75.8498 26.7502C75.8002 27.0502 75.725 27.3418 75.625 27.6252C75.525 27.8918 75.3918 28.1335 75.225 28.3502C75.075 28.5502 74.8918 28.7168 74.675 28.8502C74.4582 28.9835 74.2002 29.0502 73.9002 29.0502C73.5666 29.0502 73.2918 28.9418 73.075 28.7252C72.8582 28.5085 72.6834 28.2335 72.5498 27.9002C72.4166 27.5502 72.3166 27.1668 72.2498 26.7502C72.2002 26.3168 72.1582 25.9002 72.125 25.5002C72.1082 25.0835 72.1002 24.7085 72.1002 24.3752C72.1166 24.0252 72.125 23.7502 72.125 23.5502V22.3752C72.125 21.7418 72.1082 21.1168 72.075 20.5002C72.0582 19.8835 72.0498 19.2668 72.0498 18.6502C72.0498 18.3168 72.0498 17.8918 72.0498 17.3752C72.0666 16.8585 72.1334 16.3585 72.2498 15.8752C72.3666 15.3752 72.5582 14.9502 72.825 14.6002C73.0918 14.2502 73.4834 14.0752 74.0002 14.0752C74.2334 14.0752 74.4418 14.1502 74.625 14.3002C74.8082 14.4502 74.9666 14.6335 75.1002 14.8502C75.2498 15.0668 75.3666 15.3002 75.4498 15.5502C75.5498 15.8002 75.625 16.0168 75.675 16.2002C75.8418 15.9668 76.0334 15.7418 76.2498 15.5252C76.4834 15.3085 76.7418 15.1168 77.025 14.9502C77.3082 14.7835 77.625 14.6502 77.975 14.5502C78.325 14.4502 78.725 14.4002 79.175 14.4002C80.025 14.4002 80.6834 14.6085 81.1498 15.0252C81.6334 15.4252 81.9834 15.9335 82.2002 16.5502C82.4334 17.1502 82.575 17.8002 82.625 18.5002C82.675 19.2002 82.7002 19.8335 82.7002 20.4002C82.7002 20.6835 82.675 21.1085 82.625 21.6752C82.575 22.2252 82.4918 22.8418 82.375 23.5252C82.275 24.1918 82.1334 24.8835 81.9498 25.6002C81.7666 26.3002 81.5498 26.9418 81.3002 27.5252C81.0498 28.1085 80.7498 28.5835 80.4002 28.9502C80.0666 29.3168 79.6834 29.5002 79.2498 29.5002Z" fill="#2A374C"/>
</svg>
