<svg width="64" height="64" viewBox="0 0 64 64" fill="none" xmlns="http://www.w3.org/2000/svg">
<path fill-rule="evenodd" clip-rule="evenodd" d="M34.8702 0.0372234C40.5417 0.590999 43.6548 6.88048 47.8795 10.722C51.254 13.7904 54.8041 16.5216 57.2441 20.3816C59.7586 24.3594 62.2004 28.6468 62.1889 33.3589C62.1775 38.0672 59.4669 42.1893 57.1811 46.2997C54.8674 50.4603 52.4848 54.5737 48.7542 57.5178C44.6818 60.7316 39.9947 64.657 34.8702 63.9067C29.678 63.1465 27.499 56.7042 23.1414 53.7677C19.1721 51.0929 14.0115 50.7557 10.508 47.4895C6.32234 43.5873 1.93586 39.054 1.25014 33.3589C0.553002 27.5689 3.34832 21.7584 6.84974 17.1065C10.1661 12.7004 15.6125 10.8946 20.3142 8.03046C25.1243 5.10024 29.2712 -0.509473 34.8702 0.0372234Z" fill="#F2E9FF"/>
<path d="M39.4831 53.3624C40.3318 53.013 41.1804 52.6136 41.9792 52.1643C46.2724 49.7182 50.0664 46.673 52.4126 42.23C54.9087 37.4876 55.5577 31.4471 54.4594 26.2054C53.3112 20.7141 49.6171 15.772 44.9245 12.7767C39.1836 9.23232 31.995 9.53185 25.7549 11.1792C20.014 12.7268 14.5726 15.6222 11.8769 21.1135C9.0813 26.8544 9.73027 33.9931 11.7271 39.8338C15.6709 51.2158 27.8016 58.4044 39.4831 53.3624ZM13.5742 23.6095C15.4213 17.8187 21.0623 15.1729 26.4538 13.6254C32.1448 11.9281 38.3849 11.9281 43.6266 14.9732C48.2193 17.619 51.1147 22.6111 52.163 27.6531C53.1115 32.146 52.0632 37.4876 49.9665 41.5311C47.9697 45.3251 44.3754 47.921 40.7312 50.0177C35.5893 52.7634 29.6986 53.3125 24.3072 50.9662C19.6146 48.9194 16.3698 44.5264 14.4728 39.9337C12.3262 34.7918 11.8769 28.9012 13.5742 23.6095Z" fill="#8C4CE8"/>
<path d="M22.4101 26.9041C24.4569 28.3019 26.0543 30.4485 28.0512 31.9461C29.0496 32.6949 30.8967 34.6418 32.2944 33.5935C36.7374 30.3986 40.9807 27.0539 45.7232 24.3082C47.1209 23.5095 45.8729 21.3629 44.4751 22.1616C40.6312 24.408 36.9371 26.8542 33.4426 29.5998C33.2429 29.7496 31.3959 31.3471 31.4458 31.3471C30.2976 30.8478 29.1494 29.6997 28.2009 28.9009C26.6534 27.603 25.3554 25.9057 23.708 24.7575C22.3602 23.8589 21.1122 26.0055 22.4101 26.9041Z" fill="#8C4CE8"/>
<path d="M32.9933 19.3659C33.6922 19.3659 34.2413 18.8168 34.2413 18.1179C34.2413 17.5189 34.2413 16.9198 34.2413 16.2708C34.2413 15.572 33.6922 15.0228 32.9933 15.0228C32.2944 15.0228 31.7453 15.572 31.7453 16.2708C31.7453 16.8699 31.7453 17.469 31.7453 18.1179C31.7453 18.8168 32.2944 19.3659 32.9933 19.3659Z" fill="#8C4CE8"/>
<path d="M15.3713 34.5422C16.3697 34.5422 17.3681 34.5422 18.3665 34.5422C19.964 34.5422 19.964 32.0461 18.3665 32.0461C17.3681 32.0461 16.3697 32.0461 15.3713 32.0461C13.7239 32.0461 13.7239 34.5422 15.3713 34.5422Z" fill="#8C4CE8"/>
<path d="M45.1241 34.3424C46.3222 34.3424 47.5702 34.3424 48.7683 34.3424C50.3658 34.3424 50.3658 31.8463 48.7683 31.8463C47.5702 31.8463 46.3222 31.8463 45.1241 31.8463C43.5266 31.8463 43.5266 34.3424 45.1241 34.3424Z" fill="#8C4CE8"/>
<path d="M30.5972 44.5764C30.5972 45.7246 30.5972 46.9227 30.5972 48.0709C30.5972 49.6683 33.0933 49.6683 33.0933 48.0709C33.0933 46.9227 33.0933 45.7246 33.0933 44.5764C33.0933 42.9789 30.5972 42.9789 30.5972 44.5764Z" fill="#8C4CE8"/>
</svg>
