<svg width="116" height="56" viewBox="0 0 116 56" fill="none" xmlns="http://www.w3.org/2000/svg">
<path d="M88.48 0H26.88C17.6016 0 10.08 7.52162 10.08 16.8V39.2C10.08 48.4784 17.6016 56 26.88 56H88.48C97.7584 56 105.28 48.4784 105.28 39.2V16.8C105.28 7.52162 97.7584 0 88.48 0Z" fill="#FDC751"/>
<path d="M16.66 35.4902C16.66 36.0736 16.415 36.6219 15.925 37.1352C15.4584 37.6486 14.84 38.1152 14.07 38.5352C13.3234 38.9552 12.4834 39.3286 11.55 39.6552C10.6166 39.9586 9.695 40.2152 8.785 40.4252C7.875 40.6586 7.01165 40.8336 6.195 40.9502C5.40165 41.0669 4.77165 41.1252 4.305 41.1252C3.86167 41.1252 3.38334 41.0786 2.87 40.9852C2.38 40.9152 1.97167 40.7402 1.645 40.4602C1.45834 40.3202 1.295 40.0052 1.155 39.5152C1.015 39.0252 0.875 38.4419 0.735 37.7652C0.618335 37.0886 0.513335 36.3652 0.42 35.5952C0.326665 34.8019 0.245 34.0319 0.175 33.2852C0.128335 32.5386 0.0816648 31.8502 0.035 31.2202C0.0116648 30.5902 0 30.1002 0 29.7502C0 29.1669 0.0116648 28.4669 0.035 27.6502C0.0816648 26.8102 0.14 25.9236 0.21 24.9902C0.28 24.0336 0.373335 23.0652 0.49 22.0852C0.606665 21.1052 0.735 20.1836 0.875 19.3202C1.03834 18.4336 1.225 17.6402 1.435 16.9402C1.66834 16.2402 1.91334 15.6919 2.17 15.2952C2.61334 14.6652 3.17334 14.3502 3.85 14.3502C4.31667 14.3502 4.71335 14.5136 5.04 14.8402C5.36665 15.1436 5.62335 15.5519 5.81 16.0652C6.02 16.5552 6.17165 17.1152 6.265 17.7452C6.38165 18.3519 6.46335 18.9586 6.51 19.5652C6.55665 20.1719 6.58 20.7319 6.58 21.2452C6.58 21.7586 6.58 22.1669 6.58 22.4702C6.58 24.2902 6.53335 26.0986 6.44 27.8952C6.37 29.6686 6.335 31.4652 6.335 33.2852V34.6502C7.385 34.3236 8.52835 34.0202 9.765 33.7402C11.0016 33.4369 12.18 33.2852 13.3 33.2852C13.6966 33.2852 14.0934 33.3086 14.49 33.3552C14.91 33.4019 15.2717 33.5069 15.575 33.6702C15.9017 33.8102 16.1584 34.0319 16.345 34.3352C16.555 34.6152 16.66 35.0002 16.66 35.4902ZM23.31 15.8902C23.31 16.2169 23.2167 16.5086 23.03 16.7652C22.8667 17.0219 22.645 17.2552 22.365 17.4652C22.085 17.6519 21.7817 17.8036 21.455 17.9202C21.1284 18.0136 20.825 18.0602 20.545 18.0602C20.0784 18.0602 19.67 17.9436 19.32 17.7102C18.97 17.4769 18.795 17.1152 18.795 16.6252C18.795 16.2752 18.8767 15.9719 19.04 15.7152C19.2267 15.4352 19.4484 15.2136 19.705 15.0502C19.9617 14.8636 20.2534 14.7236 20.58 14.6302C20.9067 14.5369 21.2217 14.4902 21.525 14.4902C21.9684 14.4902 22.3767 14.5952 22.75 14.8052C23.1234 15.0152 23.31 15.3769 23.31 15.8902ZM23.59 27.7902C23.59 28.1169 23.59 28.4669 23.59 28.8402C23.59 29.1902 23.5784 29.5286 23.555 29.8552C23.5317 30.2519 23.52 30.7886 23.52 31.4652C23.52 32.1186 23.4967 32.8302 23.45 33.6002C23.4034 34.3702 23.3217 35.1519 23.205 35.9452C23.1117 36.7386 22.9484 37.4619 22.715 38.1152C22.4817 38.7686 22.1667 39.3052 21.77 39.7252C21.3967 40.1219 20.9184 40.3319 20.335 40.3552C19.8917 40.3786 19.5184 40.2036 19.215 39.8302C18.9117 39.4569 18.655 38.9786 18.445 38.3952C18.2584 37.7886 18.1184 37.1236 18.025 36.4002C17.9317 35.6536 17.8617 34.9419 17.815 34.2652C17.7684 33.5652 17.745 32.9236 17.745 32.3402C17.745 31.7569 17.745 31.3252 17.745 31.0452C17.745 30.6719 17.745 30.1469 17.745 29.4702C17.745 28.7702 17.7684 28.0236 17.815 27.2302C17.8617 26.4369 17.9434 25.6319 18.06 24.8152C18.2 23.9986 18.3867 23.2519 18.62 22.5752C18.8767 21.8986 19.2034 21.3502 19.6 20.9302C19.9967 20.5102 20.4984 20.3002 21.105 20.3002C21.735 20.3002 22.2134 20.6152 22.54 21.2452C22.8667 21.8752 23.1117 22.6102 23.275 23.4502C23.4384 24.2902 23.5317 25.1302 23.555 25.9702C23.5784 26.7869 23.59 27.3936 23.59 27.7902ZM40.74 19.3902C40.74 19.8336 40.6934 20.2652 40.6 20.6852C40.53 21.0819 40.39 21.4319 40.18 21.7352C39.97 22.0386 39.69 22.2836 39.34 22.4702C38.99 22.6336 38.5584 22.7152 38.045 22.7152C37.4617 22.7152 37.03 22.5986 36.75 22.3652C36.47 22.1319 36.2717 21.8519 36.155 21.5252C36.0616 21.1752 36.015 20.8019 36.015 20.4052C36.015 20.0086 35.9916 19.6469 35.945 19.3202C35.9216 18.9702 35.84 18.6786 35.7 18.4452C35.56 18.2119 35.3034 18.0952 34.93 18.0952C34.58 18.0952 34.2884 18.3636 34.055 18.9002C33.845 19.4369 33.67 20.0552 33.53 20.7552C33.39 21.4552 33.2966 22.1436 33.25 22.8202C33.2034 23.4736 33.18 23.9169 33.18 24.1502C33.4834 24.1036 33.775 24.0686 34.055 24.0452C34.335 23.9986 34.6384 23.9752 34.965 23.9752C35.2917 23.9752 35.63 24.0102 35.98 24.0802C36.33 24.1502 36.6567 24.2669 36.96 24.4302C37.2634 24.5702 37.5084 24.7802 37.695 25.0602C37.8817 25.3169 37.975 25.6436 37.975 26.0402C37.975 26.4602 37.7884 26.8336 37.415 27.1602C37.065 27.4869 36.6334 27.7669 36.12 28.0002C35.63 28.2102 35.1284 28.3852 34.615 28.5252C34.1017 28.6652 33.6934 28.7586 33.39 28.8052C33.46 30.4152 33.495 32.0369 33.495 33.6702C33.495 35.2102 33.46 36.7269 33.39 38.2202C33.3434 38.9436 33.0867 39.5386 32.62 40.0052C32.1767 40.4719 31.5934 40.7052 30.87 40.7052C30.4734 40.7052 30.135 40.6236 29.855 40.4602C29.575 40.3202 29.3417 40.1219 29.155 39.8652C28.9684 39.6086 28.8167 39.3169 28.7 38.9902C28.6067 38.6636 28.5484 38.3252 28.525 37.9752C28.4084 36.5752 28.315 35.1752 28.245 33.7752C28.175 32.3519 28.1517 30.9286 28.175 29.5052C28.0117 29.5286 27.8484 29.5402 27.685 29.5402C27.545 29.5402 27.3934 29.5402 27.23 29.5402C26.95 29.5402 26.6117 29.5052 26.215 29.4352C25.8184 29.3652 25.4334 29.2486 25.06 29.0852C24.71 28.8986 24.4067 28.6769 24.15 28.4202C23.8934 28.1636 23.765 27.8369 23.765 27.4402C23.765 26.9269 23.94 26.4952 24.29 26.1452C24.6167 25.7952 25.0134 25.5152 25.48 25.3052C25.97 25.0719 26.4717 24.9086 26.985 24.8152C27.5217 24.7219 27.9884 24.6519 28.385 24.6052V24.0452C28.385 22.9019 28.49 21.6769 28.7 20.3702C28.91 19.0636 29.2834 17.8502 29.82 16.7302C30.3567 15.6102 31.0917 14.6886 32.025 13.9652C32.9584 13.2186 34.1484 12.8452 35.595 12.8452C36.505 12.8452 37.2867 13.0436 37.94 13.4402C38.5934 13.8136 39.13 14.3152 39.55 14.9452C39.97 15.5519 40.2734 16.2519 40.46 17.0452C40.6467 17.8152 40.74 18.5969 40.74 19.3902ZM54.11 34.0902C54.11 34.8836 53.8534 35.6652 53.34 36.4352C52.85 37.1819 52.22 37.8586 51.45 38.4652C50.7034 39.0486 49.8984 39.5269 49.035 39.9002C48.1717 40.2502 47.3784 40.4252 46.655 40.4252C45.4184 40.4252 44.31 40.1219 43.33 39.5152C42.3734 38.8852 41.5684 38.0919 40.915 37.1352C40.2617 36.1786 39.76 35.1286 39.41 33.9852C39.0834 32.8186 38.92 31.6869 38.92 30.5902C38.92 29.4236 39.0834 28.1752 39.41 26.8452C39.7367 25.5152 40.2267 24.2902 40.88 23.1702C41.5567 22.0502 42.3967 21.1169 43.4 20.3702C44.4267 19.6236 45.64 19.2502 47.04 19.2502C47.8334 19.2502 48.5917 19.3902 49.315 19.6702C50.0384 19.9269 50.6684 20.3002 51.205 20.7902C51.7417 21.2802 52.1734 21.8636 52.5 22.5402C52.8267 23.2169 52.99 23.9752 52.99 24.8152C52.99 25.9119 52.7567 26.9386 52.29 27.8952C51.8234 28.8519 51.205 29.6802 50.435 30.3802C49.665 31.0802 48.7784 31.6519 47.775 32.0952C46.7717 32.5152 45.745 32.7486 44.695 32.7952C44.7884 33.4719 45.0567 33.9619 45.5 34.2652C45.9667 34.5686 46.515 34.7202 47.145 34.7202C47.6117 34.7202 48.0667 34.6036 48.51 34.3702C48.9534 34.1369 49.385 33.8802 49.805 33.6002C50.225 33.2969 50.6334 33.0286 51.03 32.7952C51.45 32.5619 51.87 32.4452 52.29 32.4452C52.7567 32.4452 53.1767 32.5969 53.55 32.9002C53.9234 33.2036 54.11 33.6002 54.11 34.0902ZM48.44 25.5152C48.44 25.2119 48.3584 24.8969 48.195 24.5702C48.0317 24.2436 47.775 24.0802 47.425 24.0802C46.9117 24.0802 46.48 24.2202 46.13 24.5002C45.78 24.7569 45.4884 25.0952 45.255 25.5152C45.0217 25.9119 44.835 26.3436 44.695 26.8102C44.5784 27.2769 44.5084 27.7086 44.485 28.1052C44.8117 28.0352 45.1967 27.9419 45.64 27.8252C46.1067 27.7086 46.5384 27.5569 46.935 27.3702C47.355 27.1602 47.705 26.9036 47.985 26.6002C48.2884 26.2969 48.44 25.9352 48.44 25.5152ZM63.665 41.5802C62.0085 41.5802 60.7132 41.3586 59.7803 40.9152C58.8697 40.4952 58.1815 39.8886 57.715 39.0952C57.2715 38.3019 57.0032 37.3452 56.9097 36.2252C56.8168 35.1052 56.7697 33.8569 56.7697 32.4802C56.7697 31.3836 56.805 30.2869 56.875 29.1902C56.945 28.0702 57.0497 26.8802 57.1897 25.6202C56.8632 25.6202 56.6068 25.6319 56.4203 25.6552C56.2332 25.6552 56.0815 25.6552 55.965 25.6552C55.2185 25.6552 54.5767 25.4919 54.04 25.1652C53.48 24.8386 53.2 24.3369 53.2 23.6602C53.2 23.2402 53.3634 22.8669 53.69 22.5402C53.9934 22.2136 54.39 21.9336 54.88 21.7002C55.3697 21.4669 55.895 21.2802 56.455 21.1402C57.0385 21.0002 57.5868 20.9069 58.1003 20.8602C58.1003 20.2069 58.1468 19.4836 58.2403 18.6902C58.3333 17.8969 58.4968 17.1619 58.7297 16.4852C58.9868 15.7852 59.325 15.2019 59.745 14.7352C60.165 14.2686 60.7015 14.0352 61.355 14.0352C61.7285 14.0352 62.055 14.1519 62.335 14.3852C62.6385 14.5952 62.8832 14.8752 63.0697 15.2252C63.2568 15.5519 63.3968 15.9252 63.4897 16.3452C63.5832 16.7652 63.6297 17.1736 63.6297 17.5702C63.6297 18.0369 63.595 18.5152 63.525 19.0052C63.455 19.4952 63.3268 20.1019 63.1403 20.8252C63.5368 20.7786 63.805 20.7552 63.945 20.7552C64.085 20.7319 64.2132 20.7202 64.3297 20.7202C64.7268 20.7202 65.135 20.7552 65.555 20.8252C65.9985 20.8952 66.395 21.0119 66.745 21.1752C67.1185 21.3386 67.4215 21.5602 67.655 21.8402C67.8885 22.0969 68.005 22.4119 68.005 22.7852C68.005 23.2052 67.8297 23.5786 67.4803 23.9052C67.1533 24.2319 66.7333 24.5119 66.2203 24.7452C65.7068 24.9786 65.1585 25.1652 64.575 25.3052C63.9915 25.4219 63.4432 25.5036 62.9297 25.5502C62.7897 26.5069 62.685 27.3936 62.615 28.2102C62.5685 29.0036 62.5097 29.8086 62.4403 30.6252C62.3932 31.0219 62.3468 31.4302 62.3003 31.8502C62.2768 32.2469 62.265 32.6552 62.265 33.0752C62.265 33.3786 62.2768 33.7402 62.3003 34.1602C62.3232 34.5569 62.405 34.9419 62.545 35.3152C62.685 35.6886 62.9068 36.0152 63.2097 36.2952C63.5132 36.5519 63.9332 36.6802 64.4697 36.6802C64.7968 36.6802 65.135 36.6569 65.485 36.6102C65.835 36.5402 66.185 36.5052 66.535 36.5052C67.1415 36.5052 67.5732 36.7152 67.8297 37.1352C68.1097 37.5552 68.2497 38.0919 68.2497 38.7452C68.2497 39.2352 68.0985 39.6669 67.795 40.0402C67.515 40.3902 67.1532 40.6702 66.7097 40.8802C66.2668 41.1136 65.765 41.2886 65.205 41.4052C64.6685 41.5219 64.155 41.5802 63.665 41.5802ZM75.6003 41.3352C74.4097 41.3352 73.3715 41.0202 72.485 40.3902C71.5985 39.7602 70.8515 38.9552 70.245 37.9752C69.6385 36.9952 69.1833 35.9102 68.8803 34.7202C68.5768 33.5069 68.425 32.3169 68.425 31.1502C68.425 29.9136 68.5768 28.6419 68.8803 27.3352C69.1833 26.0052 69.6497 24.8036 70.2803 23.7302C70.9097 22.6336 71.715 21.7469 72.695 21.0702C73.675 20.3702 74.8415 20.0202 76.195 20.0202C77.5015 20.0202 78.6097 20.3819 79.5203 21.1052C80.4533 21.8052 81.2003 22.6919 81.7603 23.7652C82.3203 24.8152 82.7168 25.9702 82.9497 27.2302C83.1833 28.4902 83.265 29.6802 83.195 30.8002C83.125 32.0369 82.9268 33.2852 82.6003 34.5452C82.2968 35.8052 81.8415 36.9369 81.235 37.9402C80.6285 38.9436 79.8585 39.7602 78.925 40.3902C77.9915 41.0202 76.8832 41.3352 75.6003 41.3352ZM75.9497 25.5152C75.6003 25.5152 75.285 25.7019 75.005 26.0752C74.7485 26.4486 74.5268 26.9036 74.3403 27.4402C74.1768 27.9769 74.0485 28.5486 73.955 29.1552C73.8615 29.7386 73.815 30.2519 73.815 30.6952C73.815 31.2552 73.8615 31.8619 73.955 32.5152C74.0715 33.1686 74.2233 33.7752 74.4097 34.3352C74.5968 34.8719 74.8185 35.3269 75.075 35.7002C75.355 36.0502 75.6697 36.2252 76.0203 36.2252C76.3932 36.2252 76.7085 36.0502 76.965 35.7002C77.245 35.3502 77.4668 34.9069 77.6297 34.3702C77.7933 33.8336 77.9097 33.2502 77.9803 32.6202C78.0497 31.9669 78.085 31.3602 78.085 30.8002C78.085 30.2869 78.0385 29.7269 77.945 29.1202C77.8515 28.4902 77.7115 27.9069 77.525 27.3702C77.3615 26.8336 77.1403 26.3902 76.8603 26.0402C76.6032 25.6902 76.3003 25.5152 75.9497 25.5152ZM91.6297 41.3352C90.4403 41.3352 89.4015 41.0202 88.515 40.3902C87.6285 39.7602 86.8815 38.9552 86.275 37.9752C85.6685 36.9952 85.2132 35.9102 84.9097 34.7202C84.6068 33.5069 84.455 32.3169 84.455 31.1502C84.455 29.9136 84.6068 28.6419 84.9097 27.3352C85.2132 26.0052 85.6803 24.8036 86.3097 23.7302C86.9403 22.6336 87.745 21.7469 88.725 21.0702C89.705 20.3702 90.8715 20.0202 92.225 20.0202C93.5315 20.0202 94.6403 20.3819 95.5497 21.1052C96.4833 21.8052 97.2297 22.6919 97.7897 23.7652C98.3497 24.8152 98.7468 25.9702 98.9803 27.2302C99.2132 28.4902 99.295 29.6802 99.225 30.8002C99.155 32.0369 98.9568 33.2852 98.6297 34.5452C98.3268 35.8052 97.8715 36.9369 97.265 37.9402C96.6585 38.9436 95.8885 39.7602 94.955 40.3902C94.0215 41.0202 92.9133 41.3352 91.6297 41.3352ZM91.9803 25.5152C91.6297 25.5152 91.315 25.7019 91.035 26.0752C90.7785 26.4486 90.5568 26.9036 90.3697 27.4402C90.2068 27.9769 90.0785 28.5486 89.985 29.1552C89.8915 29.7386 89.845 30.2519 89.845 30.6952C89.845 31.2552 89.8915 31.8619 89.985 32.5152C90.1015 33.1686 90.2533 33.7752 90.4403 34.3352C90.6268 34.8719 90.8485 35.3269 91.105 35.7002C91.385 36.0502 91.7003 36.2252 92.0497 36.2252C92.4232 36.2252 92.7385 36.0502 92.995 35.7002C93.275 35.3502 93.4968 34.9069 93.6603 34.3702C93.8232 33.8336 93.9403 33.2502 94.0097 32.6202C94.0803 31.9669 94.115 31.3602 94.115 30.8002C94.115 30.2869 94.0685 29.7269 93.975 29.1202C93.8815 28.4902 93.7415 27.9069 93.555 27.3702C93.3915 26.8336 93.1697 26.3902 92.8897 26.0402C92.6332 25.6902 92.3297 25.5152 91.9803 25.5152ZM110.95 41.3002C110.553 41.3002 110.239 41.1136 110.005 40.7402C109.771 40.3902 109.597 39.9819 109.48 39.5152C109.363 39.0486 109.281 38.5819 109.235 38.1152C109.211 37.6252 109.2 37.2519 109.2 36.9952C109.2 36.2952 109.235 35.5952 109.305 34.8952C109.399 34.1952 109.491 33.4952 109.585 32.7952C109.701 32.0952 109.795 31.3952 109.865 30.6952C109.959 29.9952 110.005 29.2952 110.005 28.5952C110.005 28.3152 109.993 28.0119 109.97 27.6852C109.947 27.3586 109.889 27.0552 109.795 26.7752C109.725 26.4719 109.597 26.2269 109.41 26.0402C109.223 25.8536 108.979 25.7602 108.675 25.7602C108.465 25.7602 108.231 25.9352 107.975 26.2852C107.719 26.6119 107.473 26.9969 107.24 27.4402C107.03 27.8602 106.843 28.2919 106.68 28.7352C106.54 29.1552 106.47 29.4702 106.47 29.6802C106.47 30.1936 106.47 30.7186 106.47 31.2552C106.493 31.7686 106.505 32.2936 106.505 32.8302V34.8602C106.481 35.2802 106.447 35.7119 106.4 36.1552C106.353 36.5986 106.283 37.0302 106.19 37.4502C106.12 37.8702 106.015 38.2786 105.875 38.6752C105.735 39.0486 105.549 39.3869 105.315 39.6902C105.105 39.9702 104.849 40.2036 104.545 40.3902C104.241 40.5769 103.88 40.6702 103.46 40.6702C102.993 40.6702 102.609 40.5186 102.305 40.2152C102.001 39.9119 101.757 39.5269 101.57 39.0602C101.383 38.5702 101.243 38.0336 101.15 37.4502C101.08 36.8436 101.021 36.2602 100.975 35.7002C100.951 35.1169 100.94 34.5919 100.94 34.1252C100.963 33.6352 100.975 33.2502 100.975 32.9702V31.3252C100.975 30.4386 100.951 29.5636 100.905 28.7002C100.881 27.8369 100.87 26.9736 100.87 26.1102C100.87 25.6436 100.87 25.0486 100.87 24.3252C100.893 23.6019 100.987 22.9019 101.15 22.2252C101.313 21.5252 101.581 20.9302 101.955 20.4402C102.329 19.9502 102.877 19.7052 103.6 19.7052C103.927 19.7052 104.219 19.8102 104.475 20.0202C104.731 20.2302 104.953 20.4869 105.14 20.7902C105.35 21.0936 105.513 21.4202 105.63 21.7702C105.77 22.1202 105.875 22.4236 105.945 22.6802C106.179 22.3536 106.447 22.0386 106.75 21.7352C107.077 21.4319 107.439 21.1636 107.835 20.9302C108.231 20.6969 108.675 20.5102 109.165 20.3702C109.655 20.2302 110.215 20.1602 110.845 20.1602C112.035 20.1602 112.957 20.4519 113.61 21.0352C114.287 21.5952 114.777 22.3069 115.08 23.1702C115.407 24.0102 115.605 24.9202 115.675 25.9002C115.745 26.8802 115.78 27.7669 115.78 28.5602C115.78 28.9569 115.745 29.5519 115.675 30.3452C115.605 31.1152 115.489 31.9786 115.325 32.9352C115.185 33.8686 114.987 34.8369 114.73 35.8402C114.473 36.8202 114.17 37.7186 113.82 38.5352C113.47 39.3519 113.05 40.0169 112.56 40.5302C112.093 41.0436 111.557 41.3002 110.95 41.3002Z" fill="#2A374C"/>
</svg>
