<svg width="286" height="218" viewBox="0 0 286 218" fill="none" xmlns="http://www.w3.org/2000/svg">
<mask id="path-1-inside-1_0_24" fill="white">
<path fill-rule="evenodd" clip-rule="evenodd" d="M231.759 151.655C231.225 151.171 231.357 150.296 232.002 149.975C262.873 134.628 277.505 110.717 277.505 83.8579C277.505 37.5445 249.254 4.34319e-06 138.752 0C43.0007 -3.76344e-06 0 37.5445 0 83.8579C0 130.171 39.7507 167.716 138.752 167.716C163.185 167.716 184.212 165.246 201.974 160.791C202.27 160.716 202.579 160.787 202.835 160.954C202.895 160.993 202.951 161.027 203.003 161.057C204.7 162.013 233.781 179.327 283.946 217.782C284.844 218.471 286.002 217.388 285.362 216.455C265.349 187.255 241.872 160.819 231.759 151.655Z"/>
</mask>
<path fill-rule="evenodd" clip-rule="evenodd" d="M231.759 151.655C231.225 151.171 231.357 150.296 232.002 149.975C262.873 134.628 277.505 110.717 277.505 83.8579C277.505 37.5445 249.254 4.34319e-06 138.752 0C43.0007 -3.76344e-06 0 37.5445 0 83.8579C0 130.171 39.7507 167.716 138.752 167.716C163.185 167.716 184.212 165.246 201.974 160.791C202.27 160.716 202.579 160.787 202.835 160.954C202.895 160.993 202.951 161.027 203.003 161.057C204.7 162.013 233.781 179.327 283.946 217.782C284.844 218.471 286.002 217.388 285.362 216.455C265.349 187.255 241.872 160.819 231.759 151.655Z" fill="white"/>
<path d="M138.752 0V-3.00005V0ZM203.003 161.057L204.477 158.443L204.477 158.443L203.003 161.057ZM283.946 217.782L282.121 220.163L283.946 217.782ZM285.362 216.455L282.887 218.151L285.362 216.455ZM201.974 160.791L202.704 163.701L201.974 160.791ZM202.835 160.954L201.199 163.468L202.835 160.954ZM232.002 149.975L233.337 152.662L232.002 149.975ZM231.759 151.655L229.745 153.878L231.759 151.655ZM274.505 83.8579C274.505 109.422 260.666 132.375 230.666 147.289L233.337 152.662C265.081 136.88 280.505 112.013 280.505 83.8579H274.505ZM138.752 3.00005C193.774 3.00005 227.691 12.3681 247.803 26.988C267.697 41.4501 274.505 61.3768 274.505 83.8579H280.505C280.505 60.0256 273.187 38.0233 251.331 22.1348C229.691 6.40416 194.233 -3.00005 138.752 -3.00005V3.00005ZM3.00005 83.8579C3.00005 61.7599 13.2017 41.707 35.1357 27.0561C57.1835 12.3292 91.2116 3.00005 138.752 3.00005V-3.00005C90.5414 -3.00005 55.1934 6.44301 31.803 22.0667C8.29865 37.7665 -3.00005 59.6425 -3.00005 83.8579H3.00005ZM138.752 164.716C89.5644 164.716 55.5583 155.378 33.9377 140.674C12.4567 126.064 3.00005 106.034 3.00005 83.8579H-3.00005C-3.00005 107.995 7.41868 129.894 30.5634 145.635C53.5685 161.281 88.9385 170.716 138.752 170.716V164.716ZM201.244 157.881C183.765 162.265 162.989 164.716 138.752 164.716V170.716C163.381 170.716 184.66 168.226 202.704 163.701L201.244 157.881ZM201.199 163.468C201.301 163.535 201.412 163.604 201.53 163.67L204.477 158.443C204.484 158.447 204.487 158.449 204.486 158.448C204.484 158.447 204.479 158.444 204.471 158.439L201.199 163.468ZM201.53 163.67C203.076 164.541 232.038 181.771 282.121 220.163L285.772 215.401C235.523 176.883 206.324 159.485 204.477 158.443L201.53 163.67ZM287.837 214.759C267.73 185.424 244.105 158.794 233.774 149.432L229.745 153.878C239.639 162.844 262.967 189.086 282.887 218.151L287.837 214.759ZM282.121 220.163C285.605 222.834 290.494 218.636 287.837 214.759L282.887 218.151C282.632 217.778 282.489 217.263 282.569 216.717C282.643 216.212 282.888 215.811 283.18 215.537C283.788 214.967 284.908 214.74 285.772 215.401L282.121 220.163ZM202.704 163.701C202.062 163.862 201.522 163.679 201.199 163.468L204.471 158.439C203.636 157.896 202.479 157.571 201.244 157.881L202.704 163.701ZM230.666 147.289C228.179 148.525 227.603 151.938 229.745 153.878L233.774 149.432C234.847 150.405 234.534 152.067 233.337 152.662L230.666 147.289Z" fill="#2A374C" mask="url(#path-1-inside-1_0_24)"/>
</svg>
