<svg width="64" height="64" viewBox="0 0 64 64" fill="none" xmlns="http://www.w3.org/2000/svg">
<path fill-rule="evenodd" clip-rule="evenodd" d="M34.8702 0.0372234C40.5417 0.590999 43.6548 6.88048 47.8795 10.722C51.254 13.7904 54.8041 16.5216 57.2441 20.3816C59.7586 24.3594 62.2004 28.6468 62.1889 33.3589C62.1775 38.0672 59.4669 42.1893 57.1811 46.2997C54.8674 50.4603 52.4848 54.5737 48.7542 57.5178C44.6818 60.7316 39.9947 64.657 34.8702 63.9067C29.678 63.1465 27.499 56.7042 23.1414 53.7677C19.1721 51.0929 14.0115 50.7557 10.508 47.4895C6.32234 43.5873 1.93586 39.054 1.25014 33.3589C0.553002 27.5689 3.34832 21.7584 6.84974 17.1065C10.1661 12.7004 15.6125 10.8946 20.3142 8.03046C25.1243 5.10024 29.2712 -0.509473 34.8702 0.0372234Z" fill="#F2E9FF"/>
<path d="M35.9574 45.2594C34.262 47.3924 37.3246 49.7988 38.9107 47.5565C42.5202 42.5796 45.8017 37.2746 48.2628 31.6415C50.341 26.8834 52.0911 20.8127 49.7394 15.8359C47.169 10.3668 41.2077 14.1952 38.5278 17.3125C36.0121 20.2658 34.3166 23.766 32.8947 27.3756C31.5821 23.0004 30.0508 18.7345 27.6444 14.7968C25.2927 10.8043 20.3158 6.64785 15.7765 10.5856C11.1825 14.578 13.2607 21.1409 15.1202 25.9536C17.1438 31.204 19.8236 36.2355 23.2144 40.7201C27.0428 45.697 31.5274 50.0722 36.5043 53.8459C37.2699 54.4475 38.0903 53.1349 37.2699 52.5333C27.8085 45.2048 20.5893 34.4307 16.8703 23.055C15.9406 20.2111 14.8468 16.5469 16.7063 13.8123C18.9486 10.4762 22.2847 12.3904 24.1989 14.9608C27.9725 20.1017 29.6133 26.6646 31.3634 32.6806C31.8009 34.2119 33.8244 34.0479 34.3166 32.6806C35.7933 28.6335 37.3246 24.6411 39.731 21.0315C40.8248 19.3908 42.2468 17.5313 44.0516 16.5469C46.9502 14.9608 47.7705 17.8047 47.9346 20.2111C48.2081 24.9145 46.0204 29.3992 43.8875 33.3916C41.5358 37.6028 38.9107 41.5952 35.9574 45.2594Z" fill="#8C4CE8"/>
</svg>
