<svg width="248" height="120" viewBox="0 0 248 120" fill="none" xmlns="http://www.w3.org/2000/svg">
<path d="M189.523 0H57.5766C37.7024 0 21.5912 16.1178 21.5912 36V84C21.5912 103.882 37.7024 120 57.5766 120H189.523C209.397 120 225.508 103.882 225.508 84V36C225.508 16.1178 209.397 0 189.523 0Z" fill="#FDC751"/>
<path d="M35.6855 76.0505C35.6855 77.3005 35.1607 78.4754 34.1112 79.5755C33.1116 80.6755 31.7871 81.6755 30.1378 82.5755C28.5385 83.4755 26.7392 84.2755 24.74 84.9755C22.7407 85.6255 20.7666 86.1755 18.8174 86.6255C16.8682 87.1255 15.0189 87.5005 13.2696 87.7505C11.5703 88.0004 10.2208 88.1255 9.22126 88.1255C8.27164 88.1255 7.24706 88.0255 6.14751 87.8255C5.09793 87.6755 4.22328 87.3005 3.52357 86.7005C3.12374 86.4005 2.77387 85.7255 2.474 84.6755C2.17412 83.6255 1.87424 82.3754 1.57436 80.9255C1.32447 79.4755 1.09956 77.9255 0.899635 76.2755C0.699712 74.5754 0.524787 72.9254 0.374848 71.3255C0.274892 69.7255 0.174925 68.2505 0.0749696 66.9005C0.0249859 65.5505 0 64.5005 0 63.7505C0 62.5004 0.0249859 61.0004 0.0749696 59.2505C0.174925 57.4505 0.299878 55.5505 0.449818 53.5505C0.599757 51.5005 0.79968 49.4255 1.04957 47.3255C1.29947 45.2255 1.57436 43.2505 1.87424 41.4005C2.2241 39.5005 2.62394 37.8005 3.07375 36.3005C3.57355 34.8005 4.09834 33.6254 4.64811 32.7755C5.59773 31.4255 6.79725 30.7505 8.24665 30.7505C9.24624 30.7505 10.0959 31.1005 10.7956 31.8005C11.4953 32.4505 12.0452 33.3254 12.445 34.4255C12.8948 35.4755 13.2196 36.6755 13.4196 38.0255C13.6694 39.3254 13.8444 40.6255 13.9443 41.9255C14.0443 43.2254 14.0943 44.4254 14.0943 45.5255C14.0943 46.6255 14.0943 47.5004 14.0943 48.1505C14.0943 52.0505 13.9944 55.9255 13.7944 59.7755C13.6445 63.5755 13.5695 67.4255 13.5695 71.3255V74.2505C15.8186 73.5505 18.2676 72.9005 20.9165 72.3005C23.5654 71.6504 26.0894 71.3255 28.4884 71.3255C29.3381 71.3255 30.1878 71.3755 31.0374 71.4755C31.937 71.5754 32.7117 71.8004 33.3615 72.1505C34.0611 72.4505 34.611 72.9254 35.0108 73.5755C35.4606 74.1755 35.6855 75.0005 35.6855 76.0505ZM49.9297 34.0505C49.9297 34.7504 49.7298 35.3755 49.33 35.9255C48.9801 36.4754 48.5053 36.9755 47.9056 37.4255C47.3058 37.8254 46.656 38.1505 45.9564 38.4005C45.2567 38.6005 44.6069 38.7005 44.0071 38.7005C43.0076 38.7005 42.1329 38.4505 41.3832 37.9505C40.6335 37.4504 40.2587 36.6755 40.2587 35.6255C40.2587 34.8755 40.4336 34.2254 40.7835 33.6755C41.1833 33.0755 41.6581 32.6005 42.2079 32.2505C42.7576 31.8505 43.3824 31.5505 44.0821 31.3505C44.7818 31.1504 45.4565 31.0505 46.1063 31.0505C47.056 31.0505 47.9305 31.2755 48.7302 31.7255C49.5299 32.1755 49.9297 32.9504 49.9297 34.0505ZM50.5295 59.5505C50.5295 60.2504 50.5295 61.0004 50.5295 61.8005C50.5295 62.5505 50.5046 63.2755 50.4545 63.9755C50.4045 64.8254 50.3796 65.9755 50.3796 67.4255C50.3796 68.8255 50.3295 70.3505 50.2296 72.0005C50.1297 73.6505 49.9547 75.3254 49.7048 77.0255C49.5049 78.7255 49.1551 80.2754 48.6553 81.6755C48.1554 83.0755 47.4807 84.2255 46.6311 85.1255C45.8314 85.9754 44.8069 86.4254 43.5573 86.4755C42.6077 86.5255 41.8081 86.1505 41.1583 85.3505C40.5085 84.5504 39.9588 83.5255 39.509 82.2755C39.1092 80.9755 38.8093 79.5505 38.6093 78.0005C38.4094 76.4005 38.2594 74.8754 38.1595 73.4255C38.0596 71.9255 38.0096 70.5505 38.0096 69.3005C38.0096 68.0504 38.0096 67.1255 38.0096 66.5255C38.0096 65.7254 38.0096 64.6004 38.0096 63.1505C38.0096 61.6505 38.0596 60.0505 38.1595 58.3505C38.2594 56.6504 38.4344 54.9254 38.6843 53.1755C38.9842 51.4255 39.384 49.8254 39.8838 48.3755C40.4336 46.9255 41.1334 45.7505 41.983 44.8505C42.8326 43.9505 43.9072 43.5005 45.2067 43.5005C46.5561 43.5005 47.5807 44.1755 48.2804 45.5255C48.9801 46.8755 49.5049 48.4505 49.8548 50.2505C50.2047 52.0505 50.4045 53.8505 50.4545 55.6505C50.5046 57.4004 50.5295 58.7005 50.5295 59.5505ZM87.2646 41.5505C87.2646 42.5005 87.1647 43.4255 86.9647 44.3255C86.8148 45.1754 86.5149 45.9254 86.0651 46.5755C85.6153 47.2255 85.0155 47.7505 84.2658 48.1505C83.5161 48.5005 82.5915 48.6755 81.4919 48.6755C80.2424 48.6755 79.3178 48.4255 78.7181 47.9255C78.1183 47.4254 77.6934 46.8254 77.4436 46.1255C77.2436 45.3755 77.1437 44.5754 77.1437 43.7255C77.1437 42.8755 77.0937 42.1004 76.9938 41.4005C76.9437 40.6505 76.7689 40.0255 76.469 39.5255C76.1691 39.0254 75.6194 38.7755 74.8196 38.7755C74.0699 38.7755 73.4452 39.3505 72.9454 40.5005C72.4956 41.6504 72.1207 42.9755 71.8209 44.4755C71.521 45.9755 71.321 47.4505 71.2211 48.9005C71.1212 50.3005 71.0712 51.2504 71.0712 51.7505C71.7209 51.6505 72.3456 51.5755 72.9454 51.5255C73.5452 51.4255 74.1949 51.3755 74.8946 51.3755C75.5943 51.3755 76.319 51.4505 77.0687 51.6005C77.8184 51.7505 78.5181 52.0004 79.1679 52.3505C79.8177 52.6505 80.3424 53.1005 80.7422 53.7005C81.142 54.2504 81.342 54.9505 81.342 55.8005C81.342 56.7005 80.9422 57.5005 80.1425 58.2005C79.3928 58.9004 78.4682 59.5004 77.3686 60.0005C76.319 60.4505 75.2445 60.8255 74.1449 61.1255C73.0453 61.4255 72.1708 61.6255 71.521 61.7255C71.6709 65.1755 71.7459 68.6504 71.7459 72.1505C71.7459 75.4505 71.6709 78.7004 71.521 81.9005C71.4211 83.4505 70.8712 84.7255 69.8717 85.7255C68.922 86.7254 67.6726 87.2255 66.1232 87.2255C65.2736 87.2255 64.5488 87.0505 63.9491 86.7005C63.3493 86.4005 62.8495 85.9754 62.4497 85.4255C62.0499 84.8755 61.7249 84.2504 61.4751 83.5505C61.2751 82.8505 61.1502 82.1255 61.1002 81.3755C60.8504 78.3755 60.6504 75.3755 60.5005 72.3755C60.3505 69.3254 60.3005 66.2755 60.3505 63.2255C60.0006 63.2755 59.6508 63.3005 59.3009 63.3005C59.0011 63.3005 58.6762 63.3005 58.3263 63.3005C57.7266 63.3005 57.0018 63.2255 56.1522 63.0755C55.3026 62.9255 54.4779 62.6755 53.6782 62.3255C52.9285 61.9255 52.2788 61.4504 51.729 60.9005C51.1793 60.3505 50.9043 59.6504 50.9043 58.8005C50.9043 57.7004 51.2792 56.7755 52.0289 56.0255C52.7286 55.2755 53.5783 54.6755 54.5779 54.2255C55.6274 53.7254 56.702 53.3755 57.8016 53.1755C58.951 52.9754 59.9507 52.8254 60.8003 52.7255V51.5255C60.8003 49.0754 61.0252 46.4504 61.4751 43.6505C61.9249 40.8505 62.7246 38.2505 63.8741 35.8505C65.0236 33.4505 66.5979 31.4755 68.5972 29.9255C70.5964 28.3255 73.1454 27.5255 76.2441 27.5255C78.1933 27.5255 79.8676 27.9505 81.267 28.8005C82.6665 29.6005 83.816 30.6755 84.7156 32.0255C85.6153 33.3254 86.265 34.8254 86.6648 36.5255C87.0646 38.1755 87.2646 39.8504 87.2646 41.5505ZM115.903 73.0505C115.903 74.7505 115.353 76.4255 114.254 78.0755C113.204 79.6754 111.855 81.1255 110.205 82.4255C108.606 83.6755 106.882 84.7004 105.032 85.5005C103.183 86.2505 101.484 86.6255 99.9345 86.6255C97.2856 86.6255 94.9115 85.9754 92.8123 84.6755C90.7632 83.3255 89.0389 81.6254 87.6394 79.5755C86.24 77.5255 85.1654 75.2755 84.4157 72.8255C83.7161 70.3255 83.3662 67.9004 83.3662 65.5505C83.3662 63.0505 83.7161 60.3755 84.4157 57.5255C85.1154 54.6755 86.165 52.0505 87.5645 49.6505C89.0138 47.2505 90.8131 45.2504 92.9623 43.6505C95.1614 42.0505 97.7603 41.2505 100.759 41.2505C102.458 41.2505 104.083 41.5505 105.632 42.1505C107.182 42.7004 108.531 43.5005 109.68 44.5505C110.83 45.6005 111.755 46.8505 112.454 48.3005C113.154 49.7504 113.504 51.3755 113.504 53.1755C113.504 55.5254 113.004 57.7255 112.005 59.7755C111.005 61.8254 109.68 63.6005 108.031 65.1005C106.382 66.6005 104.483 67.8254 102.333 68.7755C100.184 69.6755 97.9852 70.1755 95.7362 70.2755C95.9361 71.7254 96.5108 72.7754 97.4605 73.4255C98.46 74.0755 99.6346 74.4005 100.984 74.4005C101.984 74.4005 102.958 74.1505 103.908 73.6505C104.857 73.1504 105.782 72.6005 106.682 72.0005C107.581 71.3504 108.456 70.7755 109.306 70.2755C110.205 69.7754 111.105 69.5255 112.005 69.5255C113.004 69.5255 113.904 69.8504 114.703 70.5005C115.503 71.1505 115.903 72.0005 115.903 73.0505ZM103.758 54.6755C103.758 54.0254 103.583 53.3504 103.233 52.6505C102.883 51.9505 102.333 51.6005 101.584 51.6005C100.484 51.6005 99.5596 51.9005 98.8099 52.5005C98.0602 53.0504 97.4355 53.7755 96.9357 54.6755C96.4358 55.5254 96.036 56.4505 95.7362 57.4505C95.4863 58.4504 95.3364 59.3755 95.2863 60.2255C95.986 60.0755 96.8107 59.8754 97.7603 59.6255C98.7599 59.3755 99.6846 59.0504 100.534 58.6505C101.434 58.2005 102.184 57.6505 102.783 57.0005C103.433 56.3504 103.758 55.5755 103.758 54.6755ZM136.37 89.1005C132.822 89.1005 130.047 88.6255 128.049 87.6755C126.098 86.7755 124.624 85.4755 123.625 83.7755C122.675 82.0754 122.1 80.0255 121.9 77.6255C121.701 75.2255 121.6 72.5504 121.6 69.6005C121.6 67.2505 121.676 64.9004 121.826 62.5505C121.976 60.1505 122.2 57.6005 122.5 54.9005C121.8 54.9005 121.251 54.9254 120.852 54.9755C120.451 54.9755 120.126 54.9755 119.876 54.9755C118.277 54.9755 116.903 54.6254 115.753 53.9255C114.554 53.2255 113.954 52.1504 113.954 50.7005C113.954 49.8005 114.304 49.0004 115.003 48.3005C115.653 47.6005 116.503 47.0005 117.552 46.5005C118.601 46.0004 119.726 45.6005 120.926 45.3005C122.176 45.0005 123.35 44.8004 124.45 44.7005C124.45 43.3004 124.55 41.7505 124.75 40.0505C124.949 38.3504 125.299 36.7754 125.798 35.3255C126.349 33.8255 127.073 32.5754 127.973 31.5755C128.873 30.5755 130.022 30.0755 131.422 30.0755C132.222 30.0755 132.921 30.3254 133.521 30.8255C134.171 31.2755 134.695 31.8755 135.095 32.6255C135.495 33.3254 135.795 34.1255 135.994 35.0255C136.195 35.9255 136.294 36.8005 136.294 37.6505C136.294 38.6504 136.22 39.6755 136.07 40.7255C135.92 41.7755 135.645 43.0754 135.246 44.6255C136.095 44.5255 136.67 44.4755 136.969 44.4755C137.269 44.4254 137.544 44.4005 137.793 44.4005C138.644 44.4005 139.518 44.4755 140.418 44.6255C141.368 44.7755 142.217 45.0254 142.967 45.3755C143.767 45.7255 144.416 46.2005 144.916 46.8005C145.416 47.3504 145.666 48.0254 145.666 48.8255C145.666 49.7255 145.29 50.5255 144.542 51.2255C143.841 51.9254 142.942 52.5254 141.843 53.0255C140.743 53.5255 139.569 53.9255 138.319 54.2255C137.069 54.4754 135.895 54.6505 134.795 54.7505C134.495 56.8004 134.271 58.7005 134.121 60.4505C134.021 62.1505 133.895 63.8755 133.746 65.6255C133.646 66.4754 133.546 67.3505 133.446 68.2505C133.396 69.1004 133.371 69.9755 133.371 70.8755C133.371 71.5255 133.396 72.3005 133.446 73.2005C133.496 74.0504 133.671 74.8754 133.971 75.6755C134.271 76.4755 134.746 77.1755 135.394 77.7755C136.045 78.3254 136.944 78.6005 138.093 78.6005C138.794 78.6005 139.518 78.5504 140.268 78.4505C141.018 78.3005 141.767 78.2255 142.517 78.2255C143.816 78.2255 144.741 78.6755 145.29 79.5755C145.89 80.4755 146.19 81.6254 146.19 83.0255C146.19 84.0755 145.866 85.0004 145.216 85.8005C144.616 86.5505 143.841 87.1505 142.891 87.6005C141.943 88.1005 140.868 88.4755 139.668 88.7255C138.519 88.9754 137.419 89.1005 136.37 89.1005ZM161.935 88.5755C159.385 88.5755 157.161 87.9005 155.262 86.5505C153.363 85.2005 151.763 83.4755 150.464 81.3755C149.165 79.2755 148.19 76.9505 147.541 74.4005C146.891 71.8004 146.566 69.2504 146.566 66.7505C146.566 64.1005 146.891 61.3754 147.541 58.5755C148.19 55.7255 149.189 53.1505 150.54 50.8505C151.888 48.5005 153.613 46.6004 155.712 45.1505C157.811 43.6505 160.31 42.9005 163.209 42.9005C166.007 42.9005 168.381 43.6754 170.331 45.2255C172.33 46.7255 173.93 48.6254 175.13 50.9255C176.329 53.1755 177.178 55.6505 177.677 58.3505C178.178 61.0505 178.353 63.6005 178.203 66.0005C178.053 68.6504 177.628 71.3255 176.929 74.0255C176.279 76.7255 175.303 79.1504 174.004 81.3005C172.705 83.4505 171.056 85.2005 169.056 86.5505C167.057 87.9005 164.683 88.5755 161.935 88.5755ZM162.683 54.6755C161.935 54.6755 161.26 55.0754 160.66 55.8755C160.11 56.6755 159.635 57.6505 159.236 58.8005C158.886 59.9504 158.611 61.1755 158.411 62.4755C158.21 63.7255 158.111 64.8254 158.111 65.7755C158.111 66.9755 158.21 68.2754 158.411 69.6755C158.66 71.0755 158.985 72.3755 159.385 73.5755C159.785 74.7254 160.26 75.7004 160.81 76.5005C161.41 77.2505 162.084 77.6255 162.835 77.6255C163.633 77.6255 164.309 77.2505 164.858 76.5005C165.458 75.7505 165.933 74.8004 166.282 73.6505C166.632 72.5005 166.882 71.2505 167.033 69.9005C167.182 68.5004 167.257 67.2005 167.257 66.0005C167.257 64.9004 167.158 63.7004 166.957 62.4005C166.757 61.0505 166.457 59.8004 166.058 58.6505C165.707 57.5005 165.234 56.5505 164.634 55.8005C164.083 55.0505 163.434 54.6755 162.683 54.6755ZM196.27 88.5755C193.722 88.5755 191.497 87.9005 189.598 86.5505C187.699 85.2005 186.099 83.4755 184.8 81.3755C183.501 79.2755 182.526 76.9505 181.876 74.4005C181.227 71.8004 180.902 69.2504 180.902 66.7505C180.902 64.1005 181.227 61.3754 181.876 58.5755C182.526 55.7255 183.526 53.1505 184.874 50.8505C186.225 48.5005 187.949 46.6004 190.048 45.1505C192.147 43.6505 194.646 42.9005 197.545 42.9005C200.343 42.9005 202.718 43.6754 204.666 45.2255C206.666 46.7255 208.265 48.6254 209.464 50.9255C210.664 53.1755 211.514 55.6505 212.015 58.3505C212.514 61.0505 212.689 63.6005 212.539 66.0005C212.389 68.6504 211.964 71.3255 211.264 74.0255C210.615 76.7255 209.64 79.1504 208.34 81.3005C207.041 83.4505 205.392 85.2005 203.392 86.5505C201.393 87.9005 199.019 88.5755 196.27 88.5755ZM197.021 54.6755C196.27 54.6755 195.596 55.0754 194.996 55.8755C194.447 56.6755 193.971 57.6505 193.571 58.8005C193.222 59.9504 192.947 61.1755 192.747 62.4755C192.546 63.7255 192.447 64.8254 192.447 65.7755C192.447 66.9755 192.546 68.2754 192.747 69.6755C192.996 71.0755 193.321 72.3755 193.722 73.5755C194.121 74.7254 194.596 75.7004 195.146 76.5005C195.746 77.2505 196.421 77.6255 197.169 77.6255C197.969 77.6255 198.645 77.2505 199.194 76.5005C199.794 75.7505 200.269 74.8004 200.619 73.6505C200.968 72.5005 201.219 71.2505 201.368 69.9005C201.519 68.5004 201.593 67.2005 201.593 66.0005C201.593 64.9004 201.494 63.7004 201.293 62.4005C201.093 61.0505 200.793 59.8004 200.394 58.6505C200.043 57.5005 199.568 56.5505 198.969 55.8005C198.419 55.0505 197.769 54.6755 197.021 54.6755ZM237.653 88.5005C236.804 88.5005 236.13 88.1005 235.629 87.3005C235.129 86.5505 234.755 85.6754 234.505 84.6755C234.255 83.6755 234.08 82.6754 233.98 81.6755C233.93 80.6255 233.906 79.8254 233.906 79.2755C233.906 77.7755 233.98 76.2755 234.13 74.7755C234.33 73.2755 234.529 71.7755 234.73 70.2755C234.979 68.7755 235.18 67.2755 235.33 65.7755C235.53 64.2755 235.629 62.7755 235.629 61.2755C235.629 60.6755 235.604 60.0254 235.554 59.3255C235.505 58.6255 235.38 57.9755 235.18 57.3755C235.03 56.7254 234.755 56.2004 234.354 55.8005C233.955 55.4005 233.431 55.2005 232.781 55.2005C232.331 55.2005 231.831 55.5755 231.281 56.3255C230.732 57.0254 230.206 57.8504 229.707 58.8005C229.256 59.7005 228.857 60.6254 228.508 61.5755C228.208 62.4755 228.057 63.1505 228.057 63.6005C228.057 64.7005 228.057 65.8255 228.057 66.9755C228.107 68.0755 228.132 69.2005 228.132 70.3505V74.7005C228.082 75.6005 228.008 76.5254 227.908 77.4755C227.807 78.4255 227.657 79.3505 227.457 80.2505C227.308 81.1505 227.083 82.0255 226.783 82.8755C226.483 83.6755 226.084 84.4004 225.583 85.0505C225.134 85.6505 224.584 86.1505 223.934 86.5505C223.284 86.9504 222.51 87.1505 221.611 87.1505C220.61 87.1505 219.786 86.8255 219.136 86.1755C218.486 85.5254 217.962 84.7004 217.561 83.7005C217.162 82.6505 216.862 81.5005 216.661 80.2505C216.513 78.9505 216.387 77.7005 216.287 76.5005C216.237 75.2504 216.213 74.1254 216.213 73.1255C216.262 72.0755 216.287 71.2505 216.287 70.6505V67.1255C216.287 65.2255 216.237 63.3505 216.137 61.5005C216.087 59.6504 216.062 57.8005 216.062 55.9505C216.062 54.9505 216.062 53.6755 216.062 52.1255C216.112 50.5754 216.312 49.0754 216.661 47.6255C217.012 46.1255 217.586 44.8505 218.386 43.8005C219.186 42.7505 220.361 42.2255 221.911 42.2255C222.61 42.2255 223.235 42.4505 223.784 42.9005C224.334 43.3505 224.809 43.9004 225.209 44.5505C225.658 45.2005 226.008 45.9005 226.258 46.6505C226.557 47.4005 226.783 48.0505 226.933 48.6005C227.433 47.9005 228.008 47.2255 228.657 46.5755C229.357 45.9254 230.132 45.3505 230.981 44.8505C231.831 44.3504 232.781 43.9505 233.83 43.6505C234.88 43.3505 236.079 43.2005 237.429 43.2005C239.978 43.2005 241.952 43.8254 243.351 45.0755C244.801 46.2755 245.85 47.8004 246.501 49.6505C247.2 51.4505 247.625 53.4005 247.774 55.5005C247.924 57.6005 248 59.5004 248 61.2005C248 62.0504 247.924 63.3254 247.774 65.0255C247.625 66.6755 247.375 68.5255 247.025 70.5755C246.725 72.5755 246.3 74.6504 245.75 76.8005C245.2 78.9005 244.55 80.8255 243.802 82.5755C243.051 84.3254 242.151 85.7504 241.103 86.8505C240.102 87.9505 238.953 88.5005 237.653 88.5005Z" fill="#2A374C"/>
</svg>
