<svg width="158" height="390" viewBox="0 0 158 390" fill="none" xmlns="http://www.w3.org/2000/svg">
<path d="M2.46436 388.475C22.9989 368.967 38.154 350.624 45.5547 322.63C54.7253 287.941 51.2644 250.419 51.4513 214.904C51.5007 205.516 51.2636 195.158 51.9653 184.865M51.9653 184.865C53.1524 167.451 57.0262 150.22 69.519 138.173C78.2823 129.723 100.832 118.525 113.668 124.188C124.586 129.004 110.851 152.287 107.091 157.45C95.1432 173.856 74.7324 186.334 53.8704 185.043C53.218 185.003 52.5831 184.943 51.9653 184.865ZM51.9653 184.865C27.4215 181.744 29.8062 149.049 34.8199 131.142C41.9958 105.514 57.3412 82.3641 75.0376 62.8027C96.8947 38.642 123.083 23.1223 149.425 4.74414M128 5.59649C134.696 5.59649 141.021 4.8925 147.557 3.41039C150.158 2.82074 153.07 2 155.773 2C156.403 2 154.658 2.59389 154.139 2.95201C151.898 4.49957 150.013 6.46159 148.404 8.65234C145.512 12.5878 143.73 16.6729 143.021 21.4634" stroke="#2A374C" stroke-width="3" stroke-linecap="round"/>
</svg>
