<svg width="275" height="167" viewBox="0 0 275 167" fill="none" xmlns="http://www.w3.org/2000/svg">
<mask id="path-1-inside-1_0_62" fill="white">
<path fill-rule="evenodd" clip-rule="evenodd" d="M138.68 160.319C232.262 160.319 275 124.43 275 80.1594C275 35.8886 247.245 4.15164e-06 138.68 0C44.6073 -3.59746e-06 2.36042 35.8886 2.36042 80.1594C2.36042 100.77 10.8251 119.564 29.6877 133.765C30.1345 134.102 30.2331 134.738 29.8881 135.178C24.5398 142 13.0993 153.915 0.361099 164.926C-0.503326 165.673 0.324331 167.039 1.37072 166.58C11.1129 162.308 20.8803 157.106 29.3237 152.61C36.0024 149.054 41.8526 145.939 46.2065 144.073C46.4685 143.961 46.7634 143.967 47.0213 144.089C68.654 154.275 98.7657 160.319 138.68 160.319Z"/>
</mask>
<path fill-rule="evenodd" clip-rule="evenodd" d="M138.68 160.319C232.262 160.319 275 124.43 275 80.1594C275 35.8886 247.245 4.15164e-06 138.68 0C44.6073 -3.59746e-06 2.36042 35.8886 2.36042 80.1594C2.36042 100.77 10.8251 119.564 29.6877 133.765C30.1345 134.102 30.2331 134.738 29.8881 135.178C24.5398 142 13.0993 153.915 0.361099 164.926C-0.503326 165.673 0.324331 167.039 1.37072 166.58C11.1129 162.308 20.8803 157.106 29.3237 152.61C36.0024 149.054 41.8526 145.939 46.2065 144.073C46.4685 143.961 46.7634 143.967 47.0213 144.089C68.654 154.275 98.7657 160.319 138.68 160.319Z" fill="white"/>
<path d="M138.68 0V-3.00598V0ZM29.3237 152.61L27.9109 149.957L27.9109 149.957L29.3237 152.61ZM46.2065 144.073L47.3904 146.836L46.2065 144.073ZM47.0213 144.089L45.7407 146.808L47.0213 144.089ZM0.361099 164.926L2.32687 167.2L0.361099 164.926ZM1.37072 166.58L2.57812 169.333L1.37072 166.58ZM29.6877 133.765L31.4958 131.364L29.6877 133.765ZM29.8881 135.178L32.2538 137.032L29.8881 135.178ZM271.994 80.1594C271.994 101.185 261.905 120.315 240.298 134.318C218.579 148.394 185.144 157.313 138.68 157.313V163.325C185.798 163.325 220.523 154.299 243.568 139.363C266.726 124.355 278.006 103.405 278.006 80.1594H271.994ZM138.68 3.00598C192.743 3.00598 226.066 11.9632 245.816 25.9323C265.333 39.7364 271.994 58.7323 271.994 80.1594H278.006C278.006 57.3157 270.789 36.2319 249.288 21.024C228.019 5.98111 193.182 -3.00598 138.68 -3.00598V3.00598ZM5.3664 80.1594C5.3664 59.1222 15.3434 39.9956 36.881 25.9986C58.5354 11.9257 91.9671 3.00598 138.68 3.00598V-3.00598C91.3204 -3.00598 56.5922 6.01861 33.6049 20.9577C10.5009 35.9727 -0.645556 56.9258 -0.645556 80.1594H5.3664ZM31.4958 131.364C13.4003 117.74 5.3664 99.842 5.3664 80.1594H-0.645556C-0.645556 101.698 8.24997 121.388 27.8797 136.167L31.4958 131.364ZM27.5223 133.323C22.3291 139.948 11.0382 151.723 -1.60467 162.652L2.32687 167.2C15.1604 156.107 26.7505 144.052 32.2538 137.032L27.5223 133.323ZM2.57812 169.333C12.4421 165.007 22.3095 159.751 30.7365 155.264L27.9109 149.957C19.4511 154.462 9.78358 159.608 0.163311 163.828L2.57812 169.333ZM30.7365 155.264C37.4642 151.681 43.1815 148.64 47.3904 146.836L45.0225 141.31C40.5236 143.238 34.5405 146.427 27.9109 149.957L30.7365 155.264ZM138.68 157.313C99.0337 157.313 69.4014 151.305 48.3019 141.369L45.7407 146.808C67.9066 157.246 98.4976 163.325 138.68 163.325V157.313ZM47.3904 146.836C46.8536 147.066 46.2515 147.049 45.7407 146.808L48.3019 141.369C47.2753 140.886 46.0834 140.856 45.0225 141.31L47.3904 146.836ZM-1.60467 162.652C-3.28044 164.101 -3.3164 166.292 -2.41883 167.768C-1.50983 169.262 0.501296 170.244 2.57812 169.333L0.163311 163.828C0.577251 163.646 1.12152 163.598 1.65821 163.789C2.15478 163.966 2.50664 164.297 2.71754 164.643C3.15579 165.364 3.13821 166.499 2.32687 167.2L-1.60467 162.652ZM27.8797 136.167C27.0492 135.542 26.7777 134.273 27.5223 133.323L32.2538 137.032C33.6884 135.202 33.2198 132.662 31.4958 131.364L27.8797 136.167Z" fill="#2A374C" mask="url(#path-1-inside-1_0_62)"/>
</svg>
