<svg width="23" height="23" viewBox="0 0 23 23" fill="none" xmlns="http://www.w3.org/2000/svg">
<g clip-path="url(#clip0_13_817)">
<path d="M13.896 4.31295V5.75045H18.6877C19.2147 5.75045 19.6939 5.96128 20.0389 6.31586C20.3935 6.66086 20.6043 7.14003 20.6043 7.66711C20.6043 8.6542 19.8377 9.47836 18.8697 9.57419C18.8122 9.58378 18.7547 9.58378 18.6877 9.58378H4.31268C4.2456 9.58378 4.1881 9.58378 4.1306 9.57419C3.6706 9.53586 3.2681 9.33461 2.96143 9.01836C2.56852 8.63503 2.35768 8.08878 2.4056 7.49461C2.49185 6.48836 3.40226 5.75045 4.4181 5.75045H9.10434V4.31295C9.10434 2.99045 10.1777 1.91712 11.5002 1.91712C12.8227 1.91712 13.896 2.99045 13.896 4.31295Z" stroke="#798397" stroke-width="1.39104" stroke-linecap="round" stroke-linejoin="round"/>
<path d="M3.67041 17.9213L4.13041 9.5742C4.18791 9.58378 4.24541 9.58378 4.3125 9.58378H18.6875C18.7546 9.58378 18.8121 9.58378 18.8696 9.5742L19.3296 17.9213C19.5021 19.6175 18.17 21.0838 16.4737 21.0838H6.52624C4.82999 21.0838 3.49791 19.6175 3.67041 17.9213Z" stroke="#798397" stroke-width="1.39104" stroke-linecap="round" stroke-linejoin="round"/>
<path d="M15.3428 21.0838V16.2921" stroke="#798397" stroke-width="1.39104" stroke-linecap="round" stroke-linejoin="round"/>
<path d="M11.5002 21.0838V19.1671" stroke="#798397" stroke-width="1.39104" stroke-linecap="round" stroke-linejoin="round"/>
</g>
<defs>
<clipPath id="clip0_13_817">
<rect width="22.2566" height="22.2566" fill="white" transform="matrix(-1.0334 0 0 -1.0334 23 23)"/>
</clipPath>
</defs>
</svg>
