<svg width="23" height="23" viewBox="0 0 23 23" fill="none" xmlns="http://www.w3.org/2000/svg">
<path d="M8.96517 5.58711L9.08018 5.64461C9.54497 5.88419 9.92351 6.26274 10.1631 6.72753L10.2206 6.84253C10.4506 7.29773 11.1023 7.29773 11.337 6.84253L11.3945 6.72753C11.6341 6.26274 12.0127 5.88419 12.4775 5.64461L12.5925 5.58711C13.0477 5.35711 13.0477 4.70545 12.5925 4.47065L12.4775 4.41315C12.0127 4.17357 11.6341 3.79503 11.3945 3.33024L11.337 3.21524C11.107 2.76003 10.4554 2.76003 10.2206 3.21524L10.1631 3.33024C9.92351 3.79503 9.54497 4.17357 9.08018 4.41315L8.96517 4.47065C8.50997 4.70065 8.50997 5.35232 8.96517 5.58711Z" fill="white"/>
<path d="M9.8708 10.0769C10.3404 9.83732 10.3404 9.17127 9.8708 8.93169L9.17122 8.57232C8.5483 8.25128 8.04038 7.74336 7.71934 7.12044L7.35997 6.42086C7.12039 5.95128 6.45434 5.95128 6.21476 6.42086L5.85539 7.12044C5.53435 7.74336 5.02643 8.25128 4.40351 8.57232L3.70393 8.93169C3.23435 9.17127 3.23435 9.83732 3.70393 10.0769L4.40351 10.4363C5.02643 10.7573 5.53435 11.2652 5.85539 11.8881L6.21476 12.5877C6.45434 13.0573 7.12039 13.0573 7.35997 12.5877L7.71934 11.8881C8.04038 11.2652 8.5483 10.7573 9.17122 10.4363L9.8708 10.0769Z" fill="white"/>
<path d="M18.86 12.9423L18.1508 12.5781C17.2931 12.1421 16.6079 11.4569 16.1718 10.5992L15.8077 9.89002C15.4866 9.25752 14.8445 8.86461 14.1354 8.86461C13.4262 8.86461 12.7841 9.25752 12.4631 9.89002L12.0989 10.5992C11.6629 11.4569 10.9777 12.1421 10.12 12.5781L9.4108 12.9423C8.7783 13.2634 8.38538 13.9054 8.38538 14.6146C8.38538 15.3238 8.7783 15.9659 9.4108 16.2869L10.12 16.6511C10.9777 17.0871 11.6629 17.7723 12.0989 18.63L12.4631 19.3392C12.7841 19.9717 13.4262 20.3646 14.1354 20.3646C14.8445 20.3646 15.4866 19.9717 15.8077 19.3392L16.1718 18.63C16.6079 17.7723 17.2931 17.0871 18.1508 16.6511L18.86 16.2869C19.4925 15.9659 19.8854 15.3238 19.8854 14.6146C19.8854 13.9054 19.4925 13.2634 18.86 12.9423ZM18.2083 15.0075L17.4991 15.3717C16.3683 15.9467 15.4675 16.8475 14.8925 17.9784L14.5283 18.6875C14.4181 18.9031 14.2168 18.9271 14.1354 18.9271C14.0539 18.9271 13.8527 18.9031 13.7425 18.6875L13.3783 17.9784C12.8033 16.8475 11.9025 15.9467 10.7716 15.3717L10.0625 15.0075C9.84684 14.8973 9.82288 14.6961 9.82288 14.6146C9.82288 14.5331 9.84684 14.3319 10.0625 14.2217L10.7716 13.8575C11.9025 13.2825 12.8033 12.3817 13.3783 11.2509L13.7425 10.5417C13.8527 10.3261 14.0539 10.3021 14.1354 10.3021C14.2168 10.3021 14.4181 10.3261 14.5283 10.5417L14.8925 11.2509C15.4675 12.3817 16.3683 13.2825 17.4991 13.8575L18.2083 14.2217C18.4239 14.3319 18.4479 14.5331 18.4479 14.6146C18.4479 14.6961 18.4239 14.8973 18.2083 15.0075Z" fill="white"/>
</svg>
