<svg width="364" height="299" viewBox="0 0 364 299" fill="none" xmlns="http://www.w3.org/2000/svg">
<path d="M56.2327 83.2933L57.6278 83.0266L284.275 210.969L282.776 210.902C282.776 210.902 282.776 210.902 282.776 210.903C281.386 242.119 255.028 266.286 223.914 264.892C209.835 264.262 196.316 258.258 186.392 248.221C184.563 246.37 182.717 244.337 181.054 242.167L179.734 240.445L178.589 242.287C173.596 250.319 166.939 259.151 158.085 267.716L159.128 268.794L158.085 267.716C141.348 283.909 123.495 292.643 110.353 297.395L110.862 298.805L110.352 297.395C108.836 297.943 107.606 296.08 108.697 294.901C118.332 284.481 130.295 268.455 138.205 246.387L136.793 245.88L138.205 246.386C140.282 240.589 141.861 234.974 143.059 229.615L140.307 228.521C134.233 238.73 123.121 245.563 110.418 245.563C93.668 245.563 79.6786 233.684 76.3756 217.858L76.0823 216.453L74.6654 216.684C71.8038 217.152 68.8958 217.386 65.9019 217.252C28.7139 215.586 -0.0927734 183.999 1.56839 146.691C2.98883 114.775 26.2532 89.0229 56.2327 83.2933ZM147.591 27.1359C147.538 27.3616 147.486 27.588 147.437 27.8153L148.903 28.1328L149.827 26.9514C149.648 26.8113 149.469 26.6724 149.288 26.5344C153.503 10.6458 168.288 -0.727997 185.337 0.0363464C198.505 0.626068 209.682 8.30658 215.374 19.237C215.31 19.2811 215.247 19.3253 215.184 19.3696L216.046 20.5974L217.404 19.9617C217.369 19.8867 217.334 19.8119 217.298 19.7372C229.942 11.2444 245.3 6.57559 261.668 7.30872C302.439 9.13565 334.014 43.764 332.193 84.6538C331.966 89.7269 331.236 94.657 330.054 99.3999C350.94 108.926 365.028 130.475 363.941 154.872C362.514 186.913 335.459 211.725 303.513 210.294L147.591 27.1359Z" fill="white" stroke="#2A374C" stroke-width="3"/>
</svg>
