<svg width="65" height="64" viewBox="0 0 65 64" fill="none" xmlns="http://www.w3.org/2000/svg">
<path fill-rule="evenodd" clip-rule="evenodd" d="M4.93076 32.2888C4.24176 26.1389 -2.47 19.6058 0.98035 14.4743C4.53682 9.18506 13.4385 13.0779 19.3808 10.7983C24.0669 9.0006 26.845 3.69733 31.7563 2.66783C37.0438 1.55946 42.4581 3.03316 47.5297 4.89773C53.2829 7.01289 60.1343 8.77091 63.0518 14.1736C65.9713 19.5801 62.3435 26.1407 62.321 32.2888C62.2985 38.4092 65.4043 44.7369 62.9194 50.3273C60.3935 56.01 55.0163 60.6954 49.0063 62.2439C43.1994 63.7401 37.7518 58.3306 31.7563 58.3567C25.7207 58.383 20.0528 64.5671 14.4195 62.3946C8.9197 60.2735 6.50442 53.5668 4.72889 47.9334C3.13435 42.8743 5.52146 37.5613 4.93076 32.2888Z" fill="#FFE6DF"/>
<path fill-rule="evenodd" clip-rule="evenodd" d="M16.7615 20.1429V44.4281C16.7615 46.4009 18.3619 48 20.3334 48H44.6186C45.5655 48 46.4762 47.6237 47.1432 46.954C47.8155 46.2844 48.1905 45.3763 48.1905 44.4281V22.6434C48.1905 22.0099 47.7968 21.4447 47.2048 21.2251L44.5289 20.2313L43.5365 17.5581C43.3182 16.9648 42.7503 16.5711 42.1182 16.5711H20.3334C19.3865 16.5711 18.4758 16.9474 17.8075 17.6171C17.1365 18.2867 16.7615 19.1961 16.7615 20.1429ZM27.5615 36.7097C25.9691 36.1566 24.2575 35.8566 22.4762 35.8566C20.9896 35.8566 19.5512 36.0655 18.1905 36.4566V44.428C18.1905 45.6119 19.1508 46.5709 20.3334 46.5709H22.3583C23.1432 42.7902 24.9833 39.395 27.5615 36.7097ZM46.7615 32.5084C45.2762 32.1294 43.7227 31.9285 42.1182 31.9285C37.1896 31.9285 32.7002 33.8343 29.3546 36.9482C29.3439 36.9603 29.3332 36.971 29.3185 36.9817C26.6145 39.5103 24.6577 42.8305 23.8221 46.5711H44.6185C45.1863 46.5711 45.7328 46.3461 46.1332 45.9443C46.5364 45.5425 46.7613 44.9974 46.7613 44.4282L46.7615 32.5084ZM40.5366 18.0001H20.3334C19.7655 18.0001 19.2191 18.2264 18.8186 18.6282C18.4155 19.03 18.1905 19.575 18.1905 20.1429V34.9756C19.5579 34.6193 20.9977 34.4291 22.4762 34.4291C24.6753 34.4291 26.7753 34.8483 28.7039 35.6104C32.2689 32.4323 36.9685 30.4998 42.1182 30.4998C43.7146 30.4998 45.2722 30.6859 46.7615 31.0381V24.2266L44.5289 25.0543L43.5365 27.7289C43.3182 28.3208 42.7503 28.7146 42.1182 28.7146C41.4861 28.7146 40.9182 28.3208 40.7013 27.7289L39.7075 25.0543L37.033 24.0619C36.4396 23.8409 36.0472 23.2757 36.0472 22.6436C36.0472 22.0101 36.4396 21.445 37.033 21.2253L39.7075 20.2316L40.5366 18.0001ZM27.4758 21.2143C25.7012 21.2143 24.2615 22.6541 24.2615 24.4286C24.2615 26.2032 25.7012 27.6429 27.4758 27.6429C29.2503 27.6429 30.6901 26.2032 30.6901 24.4286C30.6901 22.6541 29.2503 21.2143 27.4758 21.2143ZM42.0404 27.2304L40.9328 24.2505C40.8578 24.055 40.7078 23.9023 40.5109 23.83L37.5296 22.7224C37.4975 22.7103 37.476 22.6782 37.476 22.6434C37.476 22.6072 37.4975 22.5764 37.5296 22.563L40.5109 21.4568C40.7077 21.3844 40.8577 21.2304 40.9328 21.0349L42.0404 18.055C42.0511 18.0228 42.0832 18.0001 42.118 18.0001C42.1542 18.0001 42.1863 18.0228 42.1971 18.055L43.3047 21.0349C43.3797 21.2304 43.5297 21.3844 43.7252 21.4568L46.7078 22.563C46.7399 22.5764 46.7614 22.6072 46.7614 22.6434C46.7614 22.6782 46.7399 22.7103 46.7078 22.7224L43.7252 23.83C43.5297 23.9023 43.3797 24.055 43.3047 24.2505L42.1971 27.2304C42.1863 27.2639 42.1542 27.2854 42.118 27.2854C42.0832 27.2854 42.0511 27.2639 42.0404 27.2304ZM27.4758 22.6434C28.4615 22.6434 29.261 23.4429 29.261 24.4286C29.261 25.4143 28.4615 26.2139 27.4758 26.2139C26.4901 26.2139 25.6905 25.4143 25.6905 24.4286C25.6905 23.4429 26.4901 22.6434 27.4758 22.6434ZM46.815 19.4344C46.9717 19.8603 47.3788 20.1429 47.8329 20.1429C48.2869 20.1429 48.694 19.8603 48.8507 19.4344L49.2539 18.3509L50.34 17.9478C50.7646 17.7898 51.0472 17.3827 51.0472 16.9286C51.0472 16.4746 50.7646 16.0675 50.34 15.9094L49.2539 15.5063L48.8507 14.4228C48.694 13.9969 48.2869 13.7143 47.8329 13.7143C47.3788 13.7143 46.9717 13.9969 46.815 14.4228L46.4119 15.5063L45.3257 15.9094C44.9011 16.0674 44.6185 16.4746 44.6185 16.9286C44.6185 17.3827 44.9011 17.7898 45.3257 17.9478L46.4119 18.3509L46.815 19.4344ZM47.8329 15.7823L48.0297 16.3114C48.1007 16.5069 48.2547 16.6596 48.4503 16.7319L48.9793 16.9288L48.4503 17.1257C48.2548 17.198 48.1007 17.3507 48.0297 17.5462L47.8329 18.0752L47.636 17.5462C47.565 17.3507 47.411 17.198 47.2154 17.1257L46.6864 16.9288L47.2154 16.7319C47.411 16.6596 47.565 16.5069 47.636 16.3114L47.8329 15.7823Z" fill="#E96D4C"/>
<path d="M12.7998 47.3143H12.1141C11.7355 47.3143 11.4283 47.0071 11.4283 46.6286C11.4283 46.25 11.7355 45.9428 12.1141 45.9428H12.7998V45.2571C12.7998 44.8786 13.107 44.5714 13.4855 44.5714C13.864 44.5714 14.1712 44.8786 14.1712 45.2571V45.9428H14.8569C15.2354 45.9428 15.5426 46.25 15.5426 46.6286C15.5426 47.0071 15.2354 47.3143 14.8569 47.3143H14.1712V48C14.1712 48.3785 13.864 48.6857 13.4855 48.6857C13.107 48.6857 12.7998 48.3785 12.7998 48V47.3143Z" fill="#E96D4C"/>
<path d="M16.9229 51.0139L16.5665 51.3372C16.3698 51.5157 16.0652 51.5009 15.8867 51.3042C15.7082 51.1074 15.723 50.8029 15.9198 50.6244L16.2762 50.301L15.9528 49.9446C15.7743 49.7479 15.7891 49.4433 15.9859 49.2648C16.1826 49.0863 16.4872 49.1011 16.6657 49.2979L16.989 49.6543L17.3454 49.3309C17.5422 49.1524 17.8467 49.1672 18.0252 49.364C18.2037 49.5607 18.1889 49.8653 17.9922 50.0438L17.6358 50.3671L17.9591 50.7236C18.1376 50.9203 18.1228 51.2248 17.9261 51.4033C17.7293 51.5818 17.4248 51.567 17.2463 51.3703L16.9229 51.0139Z" fill="#E96D4C"/>
</svg>
