<svg width="19" height="19" viewBox="0 0 19 19" fill="none" xmlns="http://www.w3.org/2000/svg">
<path d="M9.5 19C11.3789 19 13.2156 18.4428 14.7779 17.399C16.3402 16.3551 17.5578 14.8714 18.2769 13.1355C18.9959 11.3996 19.184 9.48946 18.8175 7.64665C18.4509 5.80383 17.5461 4.11109 16.2175 2.78249C14.8889 1.45389 13.1962 0.549104 11.3534 0.182544C9.51054 -0.184015 7.6004 0.0041162 5.86451 0.723149C4.12861 1.44218 2.64491 2.65982 1.60104 4.22209C0.557165 5.78435 0 7.62108 0 9.5C0 12.0196 1.00089 14.4359 2.78249 16.2175C3.66464 17.0997 4.71191 17.7994 5.86451 18.2769C7.0171 18.7543 8.25244 19 9.5 19ZM5.97835 7.32165C5.8053 7.14248 5.70954 6.90251 5.71171 6.65342C5.71387 6.40434 5.81378 6.16606 5.98992 5.98993C6.16606 5.81379 6.40433 5.71388 6.65342 5.71171C6.90251 5.70955 7.14248 5.8053 7.32165 5.97835L9.5 8.15661L11.6783 5.97835C11.8575 5.8053 12.0975 5.70955 12.3466 5.71171C12.5957 5.71388 12.8339 5.81379 13.0101 5.98993C13.1862 6.16606 13.2861 6.40434 13.2883 6.65342C13.2905 6.90251 13.1947 7.14248 13.0216 7.32165L10.8434 9.5L13.0216 11.6784C13.1124 11.766 13.1848 11.8708 13.2345 11.9867C13.2843 12.1026 13.3105 12.2273 13.3116 12.3534C13.3127 12.4796 13.2887 12.6047 13.2409 12.7214C13.1932 12.8382 13.1226 12.9442 13.0334 13.0334C12.9442 13.1226 12.8382 13.1932 12.7214 13.2409C12.6047 13.2887 12.4796 13.3127 12.3534 13.3116C12.2273 13.3105 12.1026 13.2843 11.9867 13.2345C11.8708 13.1848 11.766 13.1124 11.6783 13.0217L9.5 10.8434L7.32165 13.0217C7.14248 13.1947 6.90251 13.2905 6.65342 13.2883C6.40433 13.2861 6.16606 13.1862 5.98992 13.0101C5.81378 12.8339 5.71387 12.5957 5.71171 12.3466C5.70954 12.0975 5.8053 11.8575 5.97835 11.6784L8.1566 9.5L5.97835 7.32165Z" fill="#8C4CE8"/>
</svg>
