<svg width="64" height="64" viewBox="0 0 64 64" fill="none" xmlns="http://www.w3.org/2000/svg">
<path fill-rule="evenodd" clip-rule="evenodd" d="M34.8703 0.0372234C40.5418 0.590999 43.6548 6.88048 47.8796 10.722C51.2541 13.7904 54.8042 16.5216 57.2442 20.3816C59.7587 24.3594 62.2005 28.6468 62.189 33.3589C62.1776 38.0672 59.467 42.1893 57.1812 46.2997C54.8675 50.4603 52.4848 54.5737 48.7542 57.5178C44.6819 60.7316 39.9948 64.657 34.8703 63.9067C29.678 63.1465 27.4991 56.7042 23.1415 53.7677C19.1721 51.0929 14.0115 50.7557 10.508 47.4895C6.32241 43.5873 1.93592 39.054 1.2502 33.3589C0.553063 27.5689 3.34838 21.7584 6.8498 17.1065C10.1661 12.7004 15.6126 10.8946 20.3142 8.03046C25.1244 5.10024 29.2713 -0.509473 34.8703 0.0372234Z" fill="#FFE6DF"/>
<path fill-rule="evenodd" clip-rule="evenodd" d="M38.8573 38.0968C38.8573 37.6762 38.5167 37.3349 38.0954 37.3349C37.6741 37.3349 37.3335 37.6762 37.3335 38.0968C36.9121 38.0968 36.5716 38.4382 36.5716 38.8588C36.5716 39.2794 36.9121 39.6207 37.3335 39.6207C37.3335 40.0413 37.6741 40.3827 38.0954 40.3827C38.5167 40.3827 38.8573 40.0413 38.8573 39.6207C39.2786 39.6207 39.6192 39.2794 39.6192 38.8588C39.6192 38.4382 39.2786 38.0968 38.8573 38.0968ZM52.5716 15.2385C52.5716 15.6591 52.9121 16.0005 53.3335 16.0005C53.7548 16.0005 54.0954 15.6591 54.0954 15.2385C54.5167 15.2385 54.8573 14.8972 54.8573 14.4766C54.8573 14.056 54.5167 13.7147 54.0954 13.7147C54.0954 13.2941 53.7548 12.9527 53.3335 12.9527C52.9121 12.9527 52.5716 13.2941 52.5716 13.7147C52.1502 13.7147 51.8097 14.056 51.8097 14.4766C51.8097 14.8972 52.1502 15.2385 52.5716 15.2385ZM28.9525 12.1908C28.9525 12.6114 29.2931 12.9527 29.7144 12.9527C30.1358 12.9527 30.4763 12.6114 30.4763 12.1908C30.8977 12.1908 31.2382 11.8494 31.2382 11.4288C31.2382 11.0082 30.8977 10.6669 30.4763 10.6669C30.4763 10.2463 30.1358 9.90495 29.7144 9.90495C29.2931 9.90495 28.9525 10.2463 28.9525 10.6669C28.5312 10.6669 28.1906 11.0082 28.1906 11.4288C28.1906 11.8494 28.5312 12.1908 28.9525 12.1908ZM20.5716 21.3341H21.3335V22.096C21.3335 22.5166 21.6741 22.858 22.0954 22.858C22.5167 22.858 22.8573 22.5166 22.8573 22.096V21.3341H23.6192C24.0405 21.3341 24.3811 20.9927 24.3811 20.5721C24.3811 20.1516 24.0405 19.8102 23.6192 19.8102H22.8573V19.0483C22.8573 18.6277 22.5167 18.2863 22.0954 18.2863C21.6741 18.2863 21.3335 18.6277 21.3335 19.0483V19.8102H20.5716C20.1502 19.8102 19.8097 20.1516 19.8097 20.5721C19.8097 20.9927 20.1502 21.3341 20.5716 21.3341ZM54.0954 35.0491H53.3335V34.2871C53.3335 33.8665 52.9929 33.5252 52.5716 33.5252C52.1502 33.5252 51.8097 33.8665 51.8097 34.2871V35.0491H51.0478C50.6264 35.0491 50.2859 35.3904 50.2859 35.811C50.2859 36.2316 50.6264 36.5729 51.0478 36.5729H51.8097V37.3349C51.8097 37.7555 52.1502 38.0968 52.5716 38.0968C52.9929 38.0968 53.3335 37.7555 53.3335 37.3349V36.5729H54.0954C54.5167 36.5729 54.8573 36.2316 54.8573 35.811C54.8573 35.3904 54.5167 35.0491 54.0954 35.0491ZM39.7502 19.9405L32.0238 27.6674C31.7266 27.9653 31.7266 28.4468 32.0238 28.7447C32.3217 29.0427 32.804 29.0427 33.1011 28.7447L40.8276 21.0179C41.4211 20.4243 42.3887 20.4243 42.9822 21.0179C43.2702 21.3059 43.4287 21.6892 43.4287 22.096C43.4287 22.5029 43.2702 22.8854 42.9822 23.1734L13.268 52.8892C12.6744 53.4827 11.7068 53.4827 11.1133 52.8892C10.8253 52.6012 10.6668 52.2179 10.6668 51.811C10.6668 51.4042 10.8253 51.0217 11.1133 50.7337L30.3841 31.4618L31.0805 32.159C31.3784 32.4562 31.86 32.4562 32.1579 32.159C32.4558 31.8611 32.4558 31.3788 32.1579 31.0809L30.9228 29.8458C30.6249 29.5486 30.1426 29.5486 29.8455 29.8458L10.036 49.6563C9.45996 50.2315 9.14301 50.9973 9.14301 51.811C9.14301 52.6248 9.45996 53.3906 10.036 53.9666C10.6295 54.5601 11.4104 54.8573 12.1906 54.8573C12.9708 54.8573 13.7518 54.5601 14.3453 53.9666L44.0596 24.2508C44.6356 23.6755 44.9525 22.9098 44.9525 22.096C44.9525 21.2823 44.6356 20.5165 44.0596 19.9405C42.8725 18.7526 40.9373 18.7534 39.7502 19.9405ZM46.215 18.5477C46.4101 18.5477 46.6051 18.4738 46.7537 18.3244L49.3007 15.7772C49.5986 15.4793 49.5986 14.997 49.3007 14.6999C49.0028 14.4019 48.5213 14.4019 48.2234 14.6999L45.6763 17.247C45.3792 17.5449 45.3792 18.0273 45.6763 18.3244C45.8257 18.4738 46.02 18.5477 46.215 18.5477ZM54.0954 21.3341H48.0001C47.5788 21.3341 47.2382 21.6754 47.2382 22.096C47.2382 22.5166 47.5788 22.858 48.0001 22.858H54.0954C54.5167 22.858 54.8573 22.5166 54.8573 22.096C54.8573 21.6754 54.5167 21.3341 54.0954 21.3341ZM46.7529 25.8669C46.4558 25.5697 45.9735 25.5697 45.6756 25.8669C45.3784 26.1648 45.3784 26.6471 45.6756 26.9443L48.2234 29.4922C48.372 29.6408 48.567 29.7155 48.7621 29.7155C48.9571 29.7155 49.1521 29.6408 49.3007 29.4922C49.5986 29.1943 49.5986 28.7127 49.3007 28.4148L46.7529 25.8669ZM41.9049 29.7155C41.4836 29.7155 41.143 30.0568 41.143 30.4774V34.2864C41.143 34.707 41.4836 35.0483 41.9049 35.0483C42.3262 35.0483 42.6668 34.707 42.6668 34.2864V30.4774C42.6668 30.0568 42.3262 29.7155 41.9049 29.7155ZM28.9541 22.096C28.9541 22.5166 29.2946 22.858 29.716 22.858H33.524C33.9453 22.858 34.2859 22.5166 34.2859 22.096C34.2859 21.6754 33.9453 21.3341 33.524 21.3341H29.716C29.2946 21.3341 28.9541 21.6754 28.9541 22.096ZM37.0569 18.3244C37.2055 18.4738 37.4005 18.5477 37.5956 18.5477C37.7906 18.5477 37.9849 18.4738 38.1342 18.3244C38.4314 18.0273 38.4314 17.5442 38.1342 17.247L35.5864 14.6999C35.2885 14.4019 34.807 14.4019 34.5091 14.6999C34.2112 14.9978 34.2112 15.4801 34.5091 15.7772L37.0569 18.3244ZM41.143 16.0005V9.90495C41.143 9.48436 41.4836 9.14301 41.9049 9.14301C42.3262 9.14301 42.6668 9.48436 42.6668 9.90495V16.0005C42.6668 16.4211 42.3262 16.7624 41.9049 16.7624C41.4836 16.7624 41.143 16.4211 41.143 16.0005Z" fill="#E96D4C"/>
</svg>
