<svg width="64" height="64" viewBox="0 0 64 64" fill="none" xmlns="http://www.w3.org/2000/svg">
<path fill-rule="evenodd" clip-rule="evenodd" d="M34.8702 0.0372234C40.5417 0.590999 43.6548 6.88048 47.8795 10.722C51.254 13.7904 54.8041 16.5216 57.2441 20.3816C59.7586 24.3594 62.2004 28.6468 62.1889 33.3589C62.1775 38.0672 59.4669 42.1893 57.1811 46.2997C54.8674 50.4603 52.4848 54.5737 48.7542 57.5178C44.6818 60.7316 39.9947 64.657 34.8702 63.9067C29.678 63.1465 27.499 56.7042 23.1414 53.7677C19.1721 51.0929 14.0115 50.7557 10.508 47.4895C6.32234 43.5873 1.93586 39.054 1.25014 33.3589C0.553002 27.5689 3.34832 21.7584 6.84974 17.1065C10.1661 12.7004 15.6125 10.8946 20.3142 8.03046C25.1243 5.10024 29.2712 -0.509473 34.8702 0.0372234Z" fill="#F2E9FF"/>
<path d="M11.9353 45.6281C11.7417 45.6281 11.5558 45.5522 11.4177 45.4166C11.2795 45.281 11.2001 45.0966 11.1965 44.9031C11.1802 44.0278 11.1472 43.0723 11.1162 42.1109C11.0783 40.9781 11.0393 39.8079 11.0256 38.7617C10.9719 34.7757 11.0137 30.7261 11.0541 26.8105C11.0788 24.4533 11.1034 22.0951 11.1078 19.7373C11.1078 19.5414 11.1856 19.3535 11.3242 19.2149C11.4627 19.0764 11.6507 18.9985 11.8466 18.9985C12.0425 18.9985 12.2305 19.0764 12.369 19.2149C12.5076 19.3535 12.5854 19.5414 12.5854 19.7373C12.5805 22.1015 12.5563 24.4612 12.5317 26.8228C12.4913 30.7301 12.4495 34.7703 12.5031 38.7391C12.5164 39.7734 12.5554 40.9362 12.5928 42.0612C12.6253 43.03 12.6573 43.9919 12.6741 44.8745C12.6759 44.9715 12.6587 45.068 12.6233 45.1583C12.5879 45.2487 12.5351 45.3312 12.4678 45.4011C12.4005 45.4711 12.3201 45.5271 12.2312 45.5659C12.1423 45.6048 12.0466 45.6257 11.9495 45.6276L11.9353 45.6281Z" fill="#8C4CE8"/>
<path d="M31.3356 20.8355C31.2154 20.8351 31.097 20.8054 30.9909 20.7489C29.8537 20.1755 28.675 19.6883 27.4649 19.2915C23.3769 17.9124 18.3472 18.2872 12.0866 20.4371C11.9949 20.4686 11.8978 20.4818 11.8009 20.4758C11.7041 20.4698 11.6093 20.4448 11.5221 20.4022C11.346 20.3161 11.2113 20.1637 11.1476 19.9783C11.084 19.7929 11.0965 19.5899 11.1826 19.4138C11.2686 19.2377 11.4211 19.103 11.6064 19.0393C18.1871 16.7806 23.5256 16.4043 27.9372 17.8912C29.2232 18.3141 30.4755 18.8333 31.6834 19.4446C31.8289 19.5221 31.9443 19.646 32.0112 19.7967C32.0782 19.9473 32.0929 20.116 32.0529 20.2759C32.0129 20.4359 31.9206 20.5778 31.7906 20.6792C31.6606 20.7806 31.5005 20.8357 31.3356 20.8355Z" fill="#8C4CE8"/>
<path d="M33.5602 47.3526C33.4636 47.3525 33.3679 47.3334 33.2785 47.2964C33.1793 47.2639 33.0772 47.2406 32.9736 47.227C32.7782 47.1991 32.5859 47.1517 32.3999 47.0856C32.2073 47.0127 32.0147 46.9379 31.8221 46.8586C31.6394 46.7852 31.4562 46.7108 31.272 46.6419C30.4347 46.3262 29.6033 46.0508 28.8009 45.8179C26.2159 45.05 23.5363 44.6472 20.8397 44.621H20.819C17.8838 44.6368 14.9588 44.9681 12.0944 45.609C11.9985 45.633 11.8988 45.6375 11.8012 45.6222C11.7035 45.607 11.61 45.5723 11.526 45.5203C11.442 45.4682 11.3693 45.3998 11.3122 45.3192C11.2551 45.2385 11.2148 45.1472 11.1936 45.0507C11.1724 44.9542 11.1708 44.8544 11.1888 44.7573C11.2069 44.6601 11.2443 44.5676 11.2987 44.4851C11.3532 44.4027 11.4236 44.332 11.5059 44.2772C11.5882 44.2225 11.6806 44.1848 11.7777 44.1664C14.7459 43.5022 17.777 43.1592 20.8185 43.1434H20.8397C23.6742 43.1697 26.4911 43.5919 29.2088 44.3979C30.0495 44.6402 30.9188 44.9303 31.7931 45.2593C31.9871 45.3327 32.1797 45.4096 32.3723 45.4869C32.555 45.5603 32.7382 45.6346 32.9224 45.7036C33.0207 45.7342 33.1214 45.7568 33.2234 45.7711C33.4351 45.8001 33.6427 45.8536 33.842 45.9307C34.0002 45.9958 34.1309 46.1139 34.2118 46.2647C34.2926 46.4155 34.3186 46.5898 34.2853 46.7576C34.252 46.9255 34.1614 47.0766 34.0291 47.1851C33.8968 47.2936 33.7314 47.3528 33.5602 47.3526Z" fill="#8C4CE8"/>
<path d="M33.5597 47.3552C33.3758 47.355 33.1986 47.2863 33.0627 47.1624C32.9268 47.0385 32.842 46.8685 32.8249 46.6854L32.5899 44.2286C32.4793 43.0673 32.3676 41.9062 32.255 40.7455C32.0964 39.1142 31.9211 37.4849 31.7457 35.8561C31.5522 34.0599 31.3517 32.2036 31.1793 30.3728C30.8641 27.0517 30.736 23.6744 30.609 20.4095L30.5981 20.1228C30.5906 19.9269 30.6613 19.736 30.7945 19.5921C30.9277 19.4483 31.1127 19.3632 31.3086 19.3557C31.5046 19.3482 31.6955 19.4188 31.8393 19.5521C31.9832 19.6853 32.0682 19.8702 32.0757 20.0662L32.0866 20.3528C32.2107 23.5976 32.3397 26.9527 32.651 30.2334C32.8244 32.0558 33.0233 33.9067 33.2154 35.6976C33.3918 37.3318 33.5671 38.966 33.7272 40.6017C33.8401 41.764 33.9516 42.9262 34.0616 44.0883L34.297 46.544C34.3063 46.6406 34.2965 46.7381 34.2681 46.8309C34.2398 46.9237 34.1934 47.01 34.1316 47.0849C34.0699 47.1598 33.994 47.2218 33.9083 47.2673C33.8226 47.3128 33.7287 47.341 33.6321 47.3503C33.6081 47.3532 33.5839 47.3548 33.5597 47.3552Z" fill="#8C4CE8"/>
<path d="M31.3372 20.8335C31.184 20.8336 31.0346 20.7862 30.9096 20.6978C30.7846 20.6093 30.6902 20.4842 30.6394 20.3397C30.5886 20.1952 30.584 20.0386 30.6261 19.8913C30.6683 19.7441 30.7551 19.6136 30.8747 19.5179C33.1999 17.6547 36.0251 15.6762 39.3462 15.1344C42.6954 14.5877 46.8646 15.8491 48.0639 16.2485C48.156 16.2792 48.2411 16.3277 48.3143 16.3913C48.3876 16.4549 48.4477 16.5323 48.4911 16.6191C48.5344 16.7058 48.5603 16.8003 48.5672 16.8971C48.574 16.9939 48.5618 17.0911 48.5311 17.1831C48.5004 17.2751 48.4519 17.3602 48.3883 17.4335C48.3247 17.5068 48.2473 17.5669 48.1606 17.6102C48.0738 17.6536 47.9793 17.6795 47.8825 17.6864C47.7857 17.6932 47.6886 17.681 47.5965 17.6503C44.6152 16.6563 41.6202 16.2618 39.5846 16.5928C36.6028 17.0794 33.9766 18.9269 31.8026 20.6705C31.6708 20.7767 31.5065 20.8343 31.3372 20.8335Z" fill="#8C4CE8"/>
<path d="M33.561 47.3538C33.4018 47.3541 33.2468 47.3029 33.1191 47.2079C32.9913 47.113 32.8976 46.9793 32.852 46.8267C32.8064 46.6742 32.8113 46.511 32.8659 46.3615C32.9205 46.212 33.022 46.0841 33.1552 45.9969C35.41 44.5624 37.8625 43.4652 40.4348 42.7403C41.6767 42.3829 42.9658 42.2169 44.2578 42.2478L44.7774 42.2606C45.8737 42.2609 46.9687 42.3362 48.0547 42.4862C49.2927 42.7696 50.4637 43.2914 51.5024 44.0224C51.6644 44.1209 51.8245 44.2194 51.9831 44.3149C52.1513 44.4155 52.2726 44.5788 52.3204 44.7688C52.3682 44.9589 52.3385 45.1601 52.238 45.3283C52.1374 45.4965 51.9741 45.6178 51.7841 45.6656C51.594 45.7134 51.3928 45.6838 51.2246 45.5832C51.062 45.4847 50.8975 45.3862 50.7321 45.2818C49.8544 44.6579 48.8673 44.2046 47.8222 43.9455C46.8026 43.8076 45.7748 43.7383 44.7459 43.7382L44.2208 43.7249C43.08 43.6978 41.9417 43.8446 40.845 44.1603C38.4152 44.8439 36.0983 45.879 33.9679 47.2327C33.8471 47.3121 33.7056 47.3543 33.561 47.3538Z" fill="#8C4CE8"/>
<path d="M51.6016 45.6889C51.428 45.6886 51.26 45.6271 51.1272 45.5154C50.9943 45.4036 50.9051 45.2486 50.8751 45.0776C50.5348 43.1385 50.19 40.6488 49.9176 38.6472L49.8497 38.1546C49.6093 36.4076 49.4064 34.6306 49.2059 32.9112C48.9966 31.0997 48.7809 29.2261 48.5233 27.3949C48.3341 26.0439 48.1524 24.6919 47.9697 23.3399C47.6929 21.2801 47.4062 19.1504 47.0964 17.0636C47.0703 16.8711 47.1211 16.6761 47.2377 16.5207C47.3544 16.3654 47.5275 16.2622 47.7197 16.2336C47.9118 16.205 48.1075 16.2532 48.2643 16.3678C48.4212 16.4824 48.5266 16.6541 48.5578 16.8459C48.8695 18.9396 49.1557 21.0733 49.4345 23.1419C49.6157 24.4914 49.7997 25.8403 49.9866 27.1885C50.2466 29.0389 50.4638 30.9219 50.6761 32.7427C50.8731 34.4533 51.077 36.2225 51.3164 37.9542L51.3839 38.4467C51.6567 40.436 51.9966 42.912 52.333 44.822C52.3498 44.9176 52.3476 45.0155 52.3265 45.1102C52.3055 45.2049 52.2659 45.2946 52.2102 45.374C52.1545 45.4535 52.0837 45.5212 52.0019 45.5732C51.92 45.6253 51.8287 45.6607 51.7331 45.6775C51.6897 45.6853 51.6457 45.6891 51.6016 45.6889Z" fill="#8C4CE8"/>
<path d="M33.561 47.354C33.3921 47.3543 33.2281 47.2966 33.0966 47.1907C32.965 47.0848 32.8737 46.937 32.8379 46.7719C32.802 46.6068 32.8239 46.4345 32.8997 46.2835C32.9755 46.1326 33.1008 46.0122 33.2546 45.9424C37.9622 43.8024 44.5311 43.5192 50.3976 45.2081C50.4908 45.2349 50.5778 45.2798 50.6537 45.3403C50.7296 45.4008 50.7928 45.4756 50.8397 45.5605C50.8867 45.6454 50.9164 45.7388 50.9273 45.8352C50.9382 45.9316 50.93 46.0292 50.9031 46.1224C50.8763 46.2157 50.8314 46.3027 50.7709 46.3786C50.7104 46.4544 50.6356 46.5177 50.5507 46.5646C50.4658 46.6115 50.3724 46.6413 50.276 46.6522C50.1796 46.6631 50.082 46.6549 49.9888 46.628C44.5301 45.0588 38.2016 45.3164 33.8663 47.2875C33.7705 47.3314 33.6664 47.3541 33.561 47.354Z" fill="#8C4CE8"/>
<path d="M48.3852 49.0003C48.3065 49.0004 48.2284 48.9878 48.1537 48.9629C47.6853 48.8087 47.1894 48.6334 46.6761 48.4516C44.6898 47.7498 42.4404 46.9548 40.6072 46.943C38.2905 46.88 35.9727 47.0141 33.6788 47.3439C33.5822 47.3614 33.4831 47.3594 33.3873 47.3381C33.2914 47.3169 33.2008 47.2767 33.1207 47.22C33.0406 47.1633 32.9725 47.0912 32.9206 47.0079C32.8686 46.9246 32.8338 46.8318 32.8181 46.7349C32.8025 46.638 32.8063 46.5389 32.8293 46.4435C32.8523 46.3481 32.8942 46.2582 32.9523 46.1792C33.0105 46.1001 33.0838 46.0334 33.1681 45.983C33.2523 45.9326 33.3457 45.8995 33.4429 45.8856C35.8179 45.5425 38.2178 45.402 40.6166 45.4654C42.6965 45.4787 45.0725 46.318 47.1672 47.0588C47.6706 47.2366 48.1572 47.4085 48.6162 47.5602C48.7829 47.6153 48.9244 47.728 49.0155 47.8781C49.1066 48.0281 49.1413 48.2057 49.1134 48.379C49.0855 48.5523 48.9968 48.71 48.8632 48.8239C48.7296 48.9377 48.5598 49.0003 48.3842 49.0003H48.3852Z" fill="#8C4CE8"/>
<path d="M12.2503 47.6934C12.0747 47.6935 11.9049 47.631 11.7712 47.5172C11.6375 47.4034 11.5487 47.2457 11.5207 47.0724C11.4927 46.899 11.5274 46.7214 11.6185 46.5713C11.7096 46.4212 11.8512 46.3084 12.0178 46.2533C14.4631 45.414 17.0125 44.9168 19.5939 44.7757C22.8482 44.5325 26.12 44.6906 29.3356 45.2465C30.0316 45.38 30.563 45.4411 31.1255 45.5061C31.7938 45.5824 32.5504 45.6696 33.6989 45.8888C33.8914 45.9256 34.0614 46.0373 34.1715 46.1994C34.2816 46.3615 34.3228 46.5607 34.286 46.7532C34.2493 46.9457 34.1375 47.1156 33.9754 47.2258C33.8133 47.3359 33.6141 47.377 33.4217 47.3403C32.3273 47.1309 31.6308 47.0507 30.959 46.9733C30.368 46.9054 29.8095 46.8413 29.0598 46.698C25.9619 46.1654 22.8102 46.0154 19.6757 46.2513C17.2255 46.3856 14.8056 46.858 12.4848 47.655C12.4092 47.6804 12.33 47.6933 12.2503 47.6934Z" fill="#8C4CE8"/>
<path d="M12.5479 49.9982C12.3786 49.9984 12.2145 49.9406 12.0828 49.8343C11.9512 49.728 11.86 49.5797 11.8245 49.4143C11.7891 49.2488 11.8115 49.0762 11.888 48.9253C11.9645 48.7744 12.0905 48.6543 12.245 48.5852C16.4915 46.683 22.924 44.6109 29.449 45.5344C30.5483 45.6906 31.3033 45.7314 32.5519 45.795C32.8932 45.8132 33.2695 45.8329 33.696 45.8566C33.892 45.8678 34.0754 45.9564 34.206 46.1029C34.3367 46.2494 34.4037 46.4418 34.3925 46.6377C34.3812 46.8336 34.2926 47.0171 34.1461 47.1477C33.9996 47.2783 33.8073 47.3454 33.6113 47.3341C33.1878 47.3095 32.8144 47.2903 32.4741 47.2726C31.228 47.2076 30.4055 47.1642 29.2401 46.9992C23.0658 46.1225 16.9181 48.1123 12.8493 49.9347C12.7544 49.9768 12.6517 49.9985 12.5479 49.9982Z" fill="#8C4CE8"/>
<path d="M12.2505 47.6923H12.2451C12.1481 47.6916 12.0522 47.6718 11.9628 47.634C11.8734 47.5962 11.7924 47.5412 11.7243 47.4721C11.6562 47.403 11.6024 47.3211 11.5659 47.2312C11.5294 47.1413 11.511 47.0451 11.5117 46.9481L11.527 44.8391C11.5284 44.6441 11.6069 44.4576 11.7453 44.3202C11.8837 44.1828 12.0708 44.1057 12.2658 44.1057H12.2712C12.4671 44.1071 12.6543 44.1863 12.7919 44.3258C12.9294 44.4652 13.0059 44.6536 13.0046 44.8494L12.9903 46.9589C12.9889 47.1541 12.9103 47.3408 12.7717 47.4782C12.6331 47.6156 12.4457 47.6926 12.2505 47.6923Z" fill="#8C4CE8"/>
<path d="M12.5471 49.9984C12.3512 49.9984 12.1633 49.9205 12.0247 49.782C11.8862 49.6434 11.8083 49.4555 11.8083 49.2596C11.8083 49.0453 11.8128 48.6193 11.8187 48.176C11.8251 47.6584 11.8315 47.1146 11.83 46.8644C11.8292 46.6692 11.9057 46.4817 12.0427 46.3427C12.1798 46.2037 12.3663 46.1246 12.5614 46.1227H12.5678C12.7627 46.1227 12.9498 46.1997 13.0882 46.337C13.2265 46.4742 13.3051 46.6606 13.3066 46.8556C13.3066 47.1117 13.3017 47.6682 13.2948 48.1982C13.2894 48.6321 13.2845 49.0483 13.285 49.2581C13.285 49.4541 13.2071 49.642 13.0686 49.7805C12.93 49.9191 12.7421 49.9969 12.5462 49.9969L12.5471 49.9984Z" fill="#8C4CE8"/>
<path d="M50.1932 46.6581C49.9993 46.6582 49.8132 46.5819 49.675 46.4459C49.5368 46.3099 49.4575 46.125 49.4544 45.9312L49.4259 44.1044C49.4243 44.0073 49.4419 43.911 49.4776 43.8207C49.5133 43.7305 49.5664 43.6482 49.6339 43.5785C49.7014 43.5088 49.782 43.4531 49.871 43.4145C49.9601 43.3759 50.0558 43.3553 50.1529 43.3538H50.1647C50.3587 43.3537 50.5449 43.43 50.6831 43.5661C50.8213 43.7022 50.9005 43.8873 50.9035 44.0812L50.932 45.908C50.9351 46.1039 50.8602 46.2929 50.7239 46.4336C50.5875 46.5743 50.4009 46.655 50.2051 46.6581H50.1932Z" fill="#8C4CE8"/>
<path d="M48.3861 49.0004H48.3684C48.2714 48.9985 48.1757 48.9774 48.0868 48.9384C47.9979 48.8994 47.9176 48.8433 47.8504 48.7733C47.7832 48.7033 47.7305 48.6207 47.6952 48.5303C47.66 48.4399 47.6428 48.3434 47.6449 48.2464C47.6611 47.4519 47.6818 46.1669 47.6902 45.5375C47.6927 45.3432 47.7716 45.1576 47.9099 45.0211C48.0481 44.8846 48.2347 44.808 48.429 44.808H48.4388C48.5359 44.8093 48.6317 44.8297 48.7208 44.868C48.81 44.9064 48.8907 44.9619 48.9584 45.0314C49.0261 45.1009 49.0794 45.1831 49.1153 45.2732C49.1513 45.3633 49.1691 45.4597 49.1678 45.5567C49.1594 46.1881 49.1387 47.4775 49.1225 48.2764C49.1186 48.4694 49.0394 48.6531 48.9018 48.7884C48.7642 48.9238 48.5791 48.9998 48.3861 49.0004Z" fill="#8C4CE8"/>
<path d="M14.1738 22.9227C14 22.9225 13.8318 22.8611 13.6988 22.7492C13.5657 22.6373 13.4764 22.4821 13.4465 22.3109C13.4167 22.1396 13.4481 21.9633 13.5354 21.813C13.6226 21.6626 13.7601 21.5479 13.9236 21.4889C16.2011 20.6943 18.5567 20.1443 20.9505 19.8483C23.324 19.5217 26.0728 20.1482 28.4439 20.8038C28.6328 20.856 28.7932 20.9812 28.8898 21.1517C28.9864 21.3222 29.0113 21.5241 28.9591 21.713C28.9068 21.9019 28.7817 22.0623 28.6112 22.1589C28.4406 22.2555 28.2387 22.2804 28.0499 22.2282C26.7018 21.8558 23.5467 20.9831 21.151 21.3121C18.8594 21.595 16.6043 22.1202 14.4236 22.8788C14.3435 22.9079 14.259 22.9228 14.1738 22.9227Z" fill="#8C4CE8"/>
<path d="M15.0096 26.0021C14.8411 26.0022 14.6777 25.9447 14.5465 25.8392C14.4152 25.7337 14.3239 25.5864 14.2877 25.4219C14.2516 25.2574 14.2727 25.0855 14.3477 24.9346C14.4226 24.7838 14.5468 24.6631 14.6998 24.5925C16.8106 23.6035 19.098 23.047 21.4272 22.9558C23.7582 22.8628 26.0916 23.065 28.3719 23.5577C28.5605 23.6019 28.7242 23.7183 28.8278 23.8821C28.9314 24.0458 28.9665 24.2436 28.9257 24.433C28.8848 24.6223 28.7711 24.7881 28.6093 24.8945C28.4474 25.0009 28.2501 25.0394 28.0601 25.0018C25.9013 24.5363 23.6925 24.345 21.4858 24.4324C19.3509 24.5164 17.2543 25.027 15.3199 25.9342C15.2226 25.9792 15.1167 26.0024 15.0096 26.0021Z" fill="#8C4CE8"/>
<path d="M14.7987 30.1711C14.6286 30.1713 14.4636 30.1127 14.3316 30.0053C14.1997 29.8979 14.1088 29.7483 14.0745 29.5817C14.0401 29.415 14.0642 29.2417 14.1429 29.0908C14.2215 28.9399 14.3499 28.8208 14.5062 28.7536C19.5831 26.5678 24.7128 26.3481 28.5797 28.1508C28.7545 28.2352 28.889 28.3851 28.9542 28.568C29.0194 28.7509 29.01 28.9521 28.928 29.1281C28.846 29.304 28.698 29.4407 28.516 29.5084C28.334 29.5761 28.1327 29.5695 27.9556 29.49C23.0033 27.1805 17.3096 29.155 15.0903 30.111C14.9982 30.1506 14.899 30.1711 14.7987 30.1711Z" fill="#8C4CE8"/>
<path d="M14.9944 33.7212C14.8179 33.7212 14.6472 33.6581 14.5132 33.5431C14.3792 33.4282 14.2908 33.269 14.2641 33.0945C14.2373 32.92 14.2738 32.7417 14.3672 32.5919C14.4605 32.442 14.6044 32.3305 14.7728 32.2776C17.0415 31.5544 19.3976 31.1414 21.777 31.0497C24.183 30.9591 26.7324 30.9399 29.1073 31.7767C29.1989 31.8091 29.2831 31.8591 29.3553 31.924C29.4275 31.9889 29.4862 32.0674 29.528 32.155C29.5699 32.2426 29.5941 32.3375 29.5992 32.4345C29.6043 32.5314 29.5903 32.6284 29.558 32.7199C29.5257 32.8114 29.4756 32.8957 29.4107 32.9679C29.3458 33.04 29.2673 33.0987 29.1797 33.1406C29.0922 33.1824 28.9972 33.2066 28.9003 33.2118C28.8033 33.2169 28.7063 33.2029 28.6148 33.1706C26.4846 32.4195 24.0954 32.4401 21.8307 32.5263C19.5836 32.6131 17.3585 33.0034 15.2161 33.6867C15.1444 33.7094 15.0696 33.7211 14.9944 33.7212Z" fill="#8C4CE8"/>
<path d="M29.0073 37.6942C28.8914 37.6941 28.7772 37.6668 28.6738 37.6144C26.6643 36.5731 24.3979 36.1311 22.1444 36.3413C19.7921 36.5078 17.4578 36.8702 15.1657 37.4248C15.0707 37.4535 14.9708 37.4628 14.872 37.452C14.7733 37.4413 14.6777 37.4107 14.591 37.3622C14.5044 37.3137 14.4284 37.2481 14.3676 37.1696C14.3069 37.091 14.2626 37.001 14.2374 36.9049C14.2122 36.8088 14.2067 36.7086 14.2211 36.6104C14.2355 36.5121 14.2696 36.4177 14.3213 36.3329C14.373 36.2481 14.4413 36.1746 14.5221 36.1168C14.6029 36.059 14.6945 36.0181 14.7914 35.9965C17.1644 35.4188 19.5817 35.0414 22.0178 34.8681C24.5456 34.6305 27.0884 35.1264 29.3417 36.2964C29.4899 36.3715 29.6085 36.4944 29.6783 36.6452C29.748 36.7961 29.7649 36.966 29.7262 37.1276C29.6875 37.2892 29.5954 37.433 29.4649 37.5358C29.3343 37.6386 29.1734 37.6944 29.0073 37.6942Z" fill="#8C4CE8"/>
<path d="M30.0153 42.3154C29.8934 42.3153 29.7734 42.285 29.6661 42.2272C27.4738 41.0927 25.0675 40.4315 22.6032 40.2867C20.1541 40.0795 17.6885 40.374 15.3571 41.152C15.1733 41.2147 14.9722 41.2024 14.7974 41.1179C14.6226 41.0334 14.488 40.8834 14.4229 40.7005C14.3578 40.5175 14.3673 40.3163 14.4494 40.1403C14.5315 39.9644 14.6796 39.8278 14.8616 39.7602C17.3853 38.9142 20.0551 38.5919 22.7076 38.813C25.3806 38.9727 27.9902 39.6926 30.3669 40.926C30.5119 41.0039 30.6266 41.128 30.693 41.2786C30.7593 41.4292 30.7735 41.5976 30.7333 41.7572C30.6931 41.9167 30.6008 42.0583 30.471 42.1594C30.3412 42.2605 30.1813 42.3154 30.0167 42.3154H30.0153Z" fill="#8C4CE8"/>
<path d="M33.3832 23.7662C33.2309 23.7663 33.0823 23.7193 32.9578 23.6317C32.8332 23.544 32.7387 23.4201 32.6874 23.2767C32.636 23.1333 32.6302 22.9776 32.6707 22.8308C32.7112 22.684 32.7962 22.5533 32.9138 22.4566C33.7056 21.7665 34.5604 21.1524 35.4671 20.6224C36.5482 20.0483 37.6875 19.5911 38.8656 19.2586C41.0817 18.5651 43.4118 18.3103 45.7255 18.5085C45.9176 18.5306 46.0933 18.6272 46.215 18.7774C46.3367 18.9277 46.3946 19.1196 46.3764 19.3121C46.3581 19.5046 46.2651 19.6822 46.1174 19.807C45.9697 19.9317 45.7789 19.9935 45.5861 19.9792C43.4605 19.8011 41.3206 20.0376 39.2852 20.6756C38.2078 20.9786 37.1658 21.3955 36.1768 21.9192C35.3517 22.4053 34.5737 22.9674 33.8531 23.5983C33.721 23.7075 33.5547 23.767 33.3832 23.7662Z" fill="#8C4CE8"/>
<path d="M33.4068 27.4605C33.2532 27.4607 33.1034 27.413 32.9782 27.3242C32.8529 27.2353 32.7585 27.1096 32.708 26.9646C32.6575 26.8195 32.6535 26.6624 32.6964 26.515C32.7394 26.3675 32.8272 26.2372 32.9477 26.142C34.6351 24.8077 36.6447 23.3262 39.1467 22.6332C42.0777 21.821 44.466 21.5644 46.6661 21.8264C46.8607 21.8496 47.0381 21.9491 47.1593 22.1031C47.2805 22.2571 47.3355 22.4529 47.3123 22.6475C47.2891 22.842 47.1896 23.0194 47.0356 23.1406C46.8817 23.2618 46.6859 23.3168 46.4913 23.2937C44.4867 23.0548 42.2802 23.2976 39.5412 24.0571C37.3051 24.6767 35.4384 26.0563 33.8648 27.3014C33.7344 27.4044 33.573 27.4605 33.4068 27.4605Z" fill="#8C4CE8"/>
<path d="M33.7399 31.123C33.5897 31.1231 33.4431 31.0775 33.3195 30.9921C33.196 30.9068 33.1013 30.7858 33.0483 30.6453C32.9952 30.5048 32.9862 30.3515 33.0225 30.2058C33.0588 30.0601 33.1386 29.9289 33.2513 29.8297C35.1093 28.1734 37.2741 26.8976 39.6231 26.0746C41.9291 25.3267 44.3892 25.1874 46.7648 25.6703C46.9545 25.7085 47.1216 25.8196 47.2302 25.9798C47.3389 26.14 47.3803 26.3364 47.3456 26.5267C47.311 26.7171 47.203 26.8863 47.045 26.998C46.8869 27.1096 46.6913 27.1547 46.5003 27.1237C44.3761 26.6875 42.1752 26.8062 40.1102 27.4685C37.9405 28.2293 35.941 29.4084 34.225 30.9388C34.091 31.0571 33.9186 31.1226 33.7399 31.123Z" fill="#8C4CE8"/>
<path d="M33.806 34.2823C33.6543 34.2825 33.5061 34.2359 33.3818 34.149C33.2574 34.062 33.1628 33.9389 33.1109 33.7963C33.059 33.6537 33.0522 33.4986 33.0915 33.352C33.1309 33.2054 33.2144 33.0745 33.3307 32.9771C34.226 32.1748 35.2107 31.4782 36.2652 30.9011C37.443 30.3282 38.681 29.8884 39.9562 29.59C42.3495 28.9884 44.8445 28.9101 47.2708 29.3604C47.3662 29.3779 47.4573 29.414 47.5388 29.4666C47.6202 29.5193 47.6906 29.5875 47.7457 29.6673C47.8008 29.7472 47.8397 29.8371 47.8601 29.9319C47.8805 30.0268 47.882 30.1247 47.8645 30.2201C47.8471 30.3156 47.811 30.4066 47.7583 30.4881C47.7057 30.5696 47.6375 30.6399 47.5576 30.6951C47.4778 30.7502 47.3879 30.7891 47.293 30.8095C47.1982 30.8298 47.1002 30.8314 47.0048 30.8139C44.7862 30.402 42.5049 30.4733 40.3163 31.0227C39.1468 31.2949 38.0113 31.6963 36.9306 32.2196C35.9773 32.7445 35.0883 33.3787 34.2818 34.1094C34.1485 34.2213 33.98 34.2825 33.806 34.2823Z" fill="#8C4CE8"/>
<path d="M34.4826 38.4295C34.3244 38.4295 34.1703 38.3788 34.0431 38.2847C33.9159 38.1907 33.8223 38.0583 33.776 37.907C33.7297 37.7557 33.7331 37.5936 33.7858 37.4445C33.8386 37.2953 33.9378 37.167 34.0689 37.0785C37.8042 34.5567 43.3648 31.9562 48.6378 33.877C48.8188 33.9463 48.9653 34.084 49.0457 34.2602C49.1261 34.4365 49.1341 34.6373 49.0679 34.8194C49.0017 35.0015 48.8666 35.1503 48.6917 35.2337C48.5169 35.3172 48.3162 35.3286 48.133 35.2655C43.4427 33.5574 38.345 35.9747 34.8953 38.3034C34.7734 38.3856 34.6296 38.4295 34.4826 38.4295Z" fill="#8C4CE8"/>
<path d="M35.1136 42.5335C34.9608 42.5336 34.8117 42.4864 34.6869 42.3982C34.562 42.3101 34.4676 42.1855 34.4165 42.0415C34.3655 41.8975 34.3603 41.7412 34.4018 41.5941C34.4433 41.4471 34.5293 41.3165 34.6481 41.2204C35.4947 40.5733 36.4393 40.0658 37.4462 39.7172C38.8629 39.157 40.3386 38.7592 41.8449 38.5317C44.2098 38.1089 46.6479 38.4541 48.8024 39.5167C48.8917 39.5592 48.9715 39.6191 49.0372 39.693C49.1028 39.7669 49.153 39.8531 49.1848 39.9468C49.2165 40.0404 49.2291 40.1394 49.2219 40.238C49.2146 40.3366 49.1877 40.4327 49.1426 40.5207C49.0976 40.6086 49.0353 40.6867 48.9595 40.7502C48.8838 40.8136 48.796 40.8613 48.7015 40.8902C48.607 40.9192 48.5077 40.9289 48.4093 40.9188C48.311 40.9087 48.2157 40.8789 48.1291 40.8313C46.2461 39.9121 44.1187 39.6187 42.0572 39.994C40.6617 40.2056 39.2946 40.5745 37.982 41.0938C37.1182 41.3888 36.3067 41.8192 35.578 42.369C35.4467 42.4755 35.2827 42.5336 35.1136 42.5335Z" fill="#8C4CE8"/>
</svg>
