<svg width="64" height="64" viewBox="0 0 64 64" fill="none" xmlns="http://www.w3.org/2000/svg">
<path fill-rule="evenodd" clip-rule="evenodd" d="M34.4448 62.6351C28.6375 63.1364 21.9895 63.0819 17.5906 59.267C13.2003 55.4597 14.9236 48.0897 11.933 43.1123C8.86808 38.0114 0.353453 36.0889 0.0942602 30.1476C-0.161442 24.2863 7.37748 21.3054 10.7726 16.5147C13.7977 12.2462 14.6492 6.37786 19.0023 3.46741C23.4225 0.512074 29.1287 0.92244 34.4448 0.687593C39.9708 0.443468 46.3551 -1.35046 50.6977 2.0672C55.1073 5.53759 53.8605 12.544 56.0602 17.6992C57.9363 22.096 61.6411 25.4828 62.6795 30.1476C63.8667 35.4813 64.8333 41.3538 62.4169 46.257C59.9715 51.2192 54.4754 53.6965 49.6949 56.4956C44.8855 59.3116 40.0008 62.1555 34.4448 62.6351Z" fill="#FFE6DF"/>
<path fill-rule="evenodd" clip-rule="evenodd" d="M40.6858 42.9713C41.0643 42.9713 41.3715 42.6641 41.3715 42.2855V41.5998H42.0572C42.4357 41.5998 42.7429 41.2926 42.7429 40.9141C42.7429 40.5356 42.4357 40.2284 42.0572 40.2284H41.3715V39.5427C41.3715 39.1642 41.0643 38.857 40.6858 38.857C40.3073 38.857 40.0001 39.1642 40.0001 39.5427V40.2284H39.3144C38.9358 40.2284 38.6286 40.5356 38.6286 40.9141C38.6286 41.2926 38.9358 41.5998 39.3144 41.5998H40.0001V42.2855C40.0001 42.6641 40.3073 42.9713 40.6858 42.9713ZM50.2858 16.2284C50.2858 16.6069 50.593 16.9141 50.9715 16.9141C51.35 16.9141 51.6572 16.6069 51.6572 16.2284C52.0357 16.2284 52.3429 15.9212 52.3429 15.5427C52.3429 15.1642 52.0357 14.857 51.6572 14.857C51.6572 14.4785 51.35 14.1713 50.9715 14.1713C50.593 14.1713 50.2858 14.4785 50.2858 14.857C49.9073 14.857 49.6001 15.1642 49.6001 15.5427C49.6001 15.9212 49.9073 16.2284 50.2858 16.2284ZM33.1429 19.657C27.8492 19.657 23.5429 23.9633 23.5429 29.257C23.5429 29.6355 23.8501 29.9427 24.2286 29.9427C24.6072 29.9427 24.9144 29.6355 24.9144 29.257C24.9144 24.7196 28.6056 21.0284 33.1429 21.0284C37.6803 21.0284 41.3715 24.7196 41.3715 29.257C41.3715 29.6355 41.6787 29.9427 42.0572 29.9427C42.4357 29.9427 42.7429 29.6355 42.7429 29.257C42.7429 23.9633 38.4366 19.657 33.1429 19.657ZM44.8001 29.9427C45.1786 29.9427 45.4858 29.6355 45.4858 29.257C45.4858 22.4513 39.9486 16.9141 33.1429 16.9141C26.3372 16.9141 20.8001 22.4513 20.8001 29.257C20.8001 29.6355 21.1073 29.9427 21.4858 29.9427C21.8643 29.9427 22.1715 29.6355 22.1715 29.257C22.1715 23.2076 27.0936 18.2855 33.1429 18.2855C39.1923 18.2855 44.1144 23.2076 44.1144 29.257C44.1144 29.6355 44.4216 29.9427 44.8001 29.9427ZM18.7429 29.9427C19.1214 29.9427 19.4286 29.6355 19.4286 29.257C19.4286 21.6949 25.5809 15.5427 33.1429 15.5427C40.705 15.5427 46.8572 21.6949 46.8572 29.257C46.8572 29.6355 47.1644 29.9427 47.5429 29.9427C47.9214 29.9427 48.2286 29.6355 48.2286 29.257C48.2286 20.9386 41.4613 14.1713 33.1429 14.1713C24.8245 14.1713 18.0572 20.9386 18.0572 29.257C18.0572 29.6355 18.3644 29.9427 18.7429 29.9427ZM26.2179 36.7998L26.1514 36.7861C25.8798 36.7319 25.668 36.5201 25.6138 36.2485L25.6001 36.182L25.5864 36.2485C25.5322 36.5201 25.3203 36.7319 25.0488 36.7861L24.9822 36.7998L25.0488 36.8135C25.3203 36.8677 25.5322 37.0796 25.5864 37.3511L25.6001 37.4177L25.6138 37.3511C25.668 37.0796 25.8798 36.8677 26.1514 36.8135L26.2179 36.7998ZM29.8488 36.1278C30.1697 36.1916 30.4001 36.4727 30.4001 36.7998C30.4001 37.1269 30.1697 37.4081 29.8488 37.4718L26.8686 38.0684L26.2721 41.0485C26.2083 41.3694 25.9272 41.5998 25.6001 41.5998C25.273 41.5998 24.9918 41.3694 24.9281 41.0485L24.3315 38.0684L21.3514 37.4718C21.0305 37.4081 20.8001 37.1269 20.8001 36.7998C20.8001 36.4727 21.0305 36.1916 21.3514 36.1278L24.3315 35.5313L24.9281 32.5511C24.9918 32.2302 25.273 31.9998 25.6001 31.9998C25.9272 31.9998 26.2083 32.2302 26.2721 32.5511L26.8686 35.5313L29.8488 36.1278ZM39.3144 13.4855C39.3144 13.8641 39.6216 14.1713 40.0001 14.1713C40.3786 14.1713 40.6858 13.8641 40.6858 13.4855C41.0643 13.4855 41.3715 13.1783 41.3715 12.7998C41.3715 12.4213 41.0643 12.1141 40.6858 12.1141C40.6858 11.7356 40.3786 11.4284 40.0001 11.4284C39.6216 11.4284 39.3144 11.7356 39.3144 12.1141C38.9358 12.1141 38.6286 12.4213 38.6286 12.7998C38.6286 13.1783 38.9358 13.4855 39.3144 13.4855ZM18.7429 14.1713H19.4286V14.857C19.4286 15.2355 19.7358 15.5427 20.1144 15.5427C20.4929 15.5427 20.8001 15.2355 20.8001 14.857V14.1713H21.4858C21.8643 14.1713 22.1715 13.8641 22.1715 13.4855C22.1715 13.107 21.8643 12.7998 21.4858 12.7998H20.8001V12.1141C20.8001 11.7356 20.4929 11.4284 20.1144 11.4284C19.7358 11.4284 19.4286 11.7356 19.4286 12.1141V12.7998H18.7429C18.3644 12.7998 18.0572 13.107 18.0572 13.4855C18.0572 13.8641 18.3644 14.1713 18.7429 14.1713ZM32.4572 23.0855V46.3998C32.4572 46.7783 32.7644 47.0855 33.1429 47.0855C33.5214 47.0855 33.8286 46.7783 33.8286 46.3998V23.0855C33.8286 22.707 33.5214 22.3998 33.1429 22.3998C32.7644 22.3998 32.4572 22.707 32.4572 23.0855ZM53.7144 22.3998V49.1427C53.7144 51.0332 52.1763 52.5713 50.2858 52.5713H16.0001C14.1096 52.5713 12.5715 51.0332 12.5715 49.1427V22.3998C12.5715 22.0213 12.8787 21.7141 13.2572 21.7141C13.6357 21.7141 13.9429 22.0213 13.9429 22.3998V49.1427C13.9429 50.2769 14.8659 51.1998 16.0001 51.1998H32.4572V49.5877C31.6206 49.2373 29.4785 48.457 26.9715 48.457C20.977 48.457 16.2353 49.7886 16.188 49.8017C16.1262 49.8195 16.0632 49.8284 16.0001 49.8284C15.8526 49.8284 15.7073 49.7811 15.5866 49.6899C15.4152 49.5603 15.3144 49.3573 15.3144 49.1427V18.9713C15.3144 18.6654 15.5173 18.3959 15.8115 18.3123C15.8773 18.2931 17.4531 17.8467 19.9662 17.4606C20.3365 17.401 20.6897 17.6595 20.748 18.0339C20.8056 18.4083 20.5484 18.758 20.174 18.8156C18.5571 19.0645 17.3276 19.3429 16.6858 19.5013V48.2602C18.3569 47.8645 22.2483 47.0855 26.9715 47.0855C29.9228 47.0855 32.3626 48.0428 33.1697 48.3994C34.0776 48.0668 37.0124 47.0855 40.0001 47.0855C44.5957 47.0855 48.0462 47.8241 49.6001 48.2314V19.4581C49.0213 19.2785 47.8412 18.9774 46.0748 18.8307C45.6977 18.7991 45.4172 18.4679 45.4488 18.0901C45.4803 17.713 45.8067 17.4291 46.1886 17.4641C49.0364 17.7013 50.4949 18.315 50.556 18.3411C50.8083 18.4487 50.9715 18.697 50.9715 18.9713V49.1427C50.9715 49.3628 50.8652 49.5699 50.6869 49.6988C50.508 49.827 50.2776 49.8627 50.0698 49.7934C50.0286 49.7797 45.9726 48.457 40.0001 48.457C37.4321 48.457 34.8284 49.2723 33.8286 49.622V51.1998H50.2858C51.42 51.1998 52.3429 50.2769 52.3429 49.1427V22.3998C52.3429 22.0213 52.6501 21.7141 53.0286 21.7141C53.4072 21.7141 53.7144 22.0213 53.7144 22.3998Z" fill="#E96D4C"/>
</svg>
